<svg width="25" height="25" viewBox="0 0 25 25" fill="none" xmlns="http://www.w3.org/2000/svg">
<path fill-rule="evenodd" clip-rule="evenodd" d="M1.18652 4.0918C1.18652 3.53951 1.63424 3.0918 2.18652 3.0918H8.18652C9.51261 3.0918 10.7844 3.61858 11.7221 4.55626C12.6597 5.49394 13.1865 6.76571 13.1865 8.0918V22.0918C13.1865 22.6441 12.7388 23.0918 12.1865 23.0918C11.6342 23.0918 11.1865 22.6441 11.1865 22.0918C11.1865 21.5614 10.9758 21.0527 10.6007 20.6776C10.2257 20.3025 9.71696 20.0918 9.18652 20.0918H2.18652C1.63424 20.0918 1.18652 19.6441 1.18652 19.0918V4.0918ZM11.1865 18.6277V8.0918C11.1865 7.29615 10.8705 6.53309 10.3078 5.97048C9.74523 5.40787 8.98217 5.0918 8.18652 5.0918H3.18652V18.0918H9.18652C9.89475 18.0918 10.5836 18.2796 11.1865 18.6277Z" fill="#5F4E0D"/>
<path fill-rule="evenodd" clip-rule="evenodd" d="M12.651 4.55626C13.5887 3.61858 14.8604 3.0918 16.1865 3.0918H22.1865C22.7388 3.0918 23.1865 3.53951 23.1865 4.0918V19.0918C23.1865 19.6441 22.7388 20.0918 22.1865 20.0918H15.1865C14.6561 20.0918 14.1474 20.3025 13.7723 20.6776C13.3972 21.0527 13.1865 21.5614 13.1865 22.0918C13.1865 22.6441 12.7388 23.0918 12.1865 23.0918C11.6342 23.0918 11.1865 22.6441 11.1865 22.0918V8.0918C11.1865 6.76571 11.7133 5.49394 12.651 4.55626ZM13.1865 18.6277C13.7894 18.2796 14.4783 18.0918 15.1865 18.0918H21.1865V5.0918H16.1865C15.3909 5.0918 14.6278 5.40787 14.0652 5.97048C13.5026 6.53309 13.1865 7.29615 13.1865 8.0918V18.6277Z" fill="#5F4E0D"/>
</svg>
