<svg width="32" height="32" viewBox="0 0 32 32" fill="none" xmlns="http://www.w3.org/2000/svg">
<path d="M16 0C7.16442 0 0 7.16442 0 16C0 24.8356 7.16442 32 16 32C17.4756 32 18.6667 30.8089 18.6667 29.3333C18.6667 28.64 18.4089 28.0177 17.9733 27.5467C17.5556 27.0756 17.3067 26.4623 17.3067 25.7778C17.3067 24.3022 18.4977 23.1111 19.9733 23.1111H23.1111C28.0178 23.1111 32 19.1288 32 14.2222C32 6.36442 24.8356 0 16 0ZM6.22225 16C4.74667 16 3.55558 14.8089 3.55558 13.3333C3.55558 11.8577 4.74667 10.6667 6.22225 10.6667C7.69783 10.6667 8.88892 11.8577 8.88892 13.3333C8.88892 14.8089 7.69775 16 6.22225 16ZM11.5556 8.88892C10.08 8.88892 8.88892 7.69783 8.88892 6.22225C8.88892 4.74667 10.08 3.55558 11.5556 3.55558C13.0312 3.55558 14.2223 4.74667 14.2223 6.22225C14.2223 7.69783 13.0311 8.88892 11.5556 8.88892ZM20.4444 8.88892C18.9688 8.88892 17.7778 7.69783 17.7778 6.22225C17.7778 4.74667 18.9688 3.55558 20.4444 3.55558C21.92 3.55558 23.1111 4.74667 23.1111 6.22225C23.1111 7.69783 21.92 8.88892 20.4444 8.88892ZM25.7778 16C24.3022 16 23.1111 14.8089 23.1111 13.3333C23.1111 11.8577 24.3022 10.6667 25.7778 10.6667C27.2533 10.6667 28.4444 11.8577 28.4444 13.3333C28.4444 14.8089 27.2533 16 25.7778 16Z" fill="#FFCF10"/>
</svg>
