<svg width="32" height="26" viewBox="0 0 32 26" fill="none" xmlns="http://www.w3.org/2000/svg">
<path d="M31.7736 14.3437L30.3411 12.2476C29.9164 8.57949 28.8676 5.86498 27.1486 3.97274C25.1364 1.75747 22.2605 0.680664 18.3567 0.680664C17.8066 0.680664 17.2268 0.702625 16.6333 0.746076C9.98085 1.23245 6.41897 8.89478 5.00903 12.8776C4.93871 12.9077 4.86828 12.9382 4.79774 12.9692C1.56579 14.3892 -0.0036716 15.9702 -0.000116043 17.8022C0.00124343 18.4934 0.407466 19.2317 1.31685 20.1961C1.9775 20.8966 2.8791 21.6779 3.85531 22.396C5.00401 23.2411 7.93724 25.2169 10.36 25.3128C10.4682 25.3171 10.5842 25.3191 10.7048 25.3191C10.705 25.3191 10.7047 25.3191 10.7049 25.3191C14.5191 25.3191 26.5921 23.0697 31.7586 15.829C32.0747 15.3862 32.0807 14.7929 31.7736 14.3437ZM25.273 15.8665C24.9655 16.0734 24.6506 16.2691 24.3312 16.4571C23.6346 16.8669 22.9158 17.2381 22.1817 17.5757C20.7847 18.2181 19.3236 18.7447 17.8228 19.0852C16.4572 19.395 15.0034 19.5852 13.6113 19.3455C12.2723 19.115 10.9549 18.6581 9.75889 18.0133C8.56867 17.3716 7.34864 16.5651 6.48422 15.5071C7.0242 15.7446 7.56867 15.97 8.11847 16.1837C8.47162 14.9674 8.88056 13.7619 9.37233 12.5942C9.85071 11.4584 10.4109 10.3665 11.2255 9.43418C12.1846 8.33625 13.3741 7.41964 14.628 6.68333C15.682 6.06446 16.81 5.57818 18.0072 5.32025C17.5324 5.49583 17.0735 5.70273 16.6312 5.94974C15.3108 6.6873 14.1233 7.68066 13.1212 8.81039C12.6809 9.3067 12.2163 9.85149 11.9082 10.4432C11.5674 11.0978 11.3473 11.801 11.1664 12.5146C10.8103 13.9315 10.6008 15.3888 10.4638 16.8423C10.4495 16.994 10.4551 16.9805 10.6052 17.0213C10.7002 17.0472 10.7952 17.0731 10.8903 17.0989C11.0621 17.1494 11.2363 17.1913 11.4104 17.2331C11.7715 17.3198 12.1345 17.3954 12.4984 17.47C14.685 17.9379 17.5966 17.4009 19.399 17.0001C21.2205 16.5952 23.0283 16.1305 24.8459 15.7085C24.8449 15.7086 24.861 15.7048 24.9033 15.695C25.1739 15.6337 25.113 15.6477 25.0132 15.6706C25.2675 15.6134 25.5222 15.5575 25.7779 15.5071C25.7778 15.5837 25.3289 15.8288 25.273 15.8665Z" fill="#FFCF10"/>
</svg>
