<svg width="48" height="48" viewBox="0 0 48 48" fill="none" xmlns="http://www.w3.org/2000/svg">
<path d="M38.208 7.72818C34.848 2.97618 29.664 0.336182 24 0.336182C18.24 0.336182 13.104 3.07218 9.84 7.77618C6.624 12.4802 5.904 18.4322 7.968 23.6642C8.256 24.2882 8.544 25.0082 8.976 25.6802L21.744 46.4162C22.224 47.2322 23.088 47.7122 24.048 47.7122C25.008 47.7122 25.824 47.2322 26.352 46.4162L39.168 25.5362C39.6 24.7682 39.984 24.0962 40.224 23.4242C42.192 18.2402 41.424 12.3362 38.208 7.72818ZM24 25.7762C19.152 25.7762 15.216 21.7922 15.216 16.9922C15.216 12.1922 19.152 8.16018 24 8.16018C28.848 8.16018 32.784 12.1442 32.784 16.9442C32.784 21.7442 28.848 25.7762 24 25.7762Z" fill="black"/>
<path d="M28 16.8C28 19.0092 26.2091 20.8 24 20.8C21.7909 20.8 20 19.0092 20 16.8C20 14.5909 21.7909 12.8 24 12.8C26.2091 12.8 28 14.5909 28 16.8Z" fill="black"/>
</svg>
