<svg width="19" height="19" viewBox="0 0 19 19" fill="none" xmlns="http://www.w3.org/2000/svg">
<path d="M13.8415 18.9926C12.2847 18.9926 10.8215 18.3866 9.72067 17.2858L2.51027 10.0754C1.40947 8.975 0.803467 7.5114 0.803467 5.955C0.803467 4.3986 1.40947 2.935 2.51027 1.8346C3.20347 1.1414 3.88187 0.804199 4.58467 0.804199C5.81867 0.804199 6.79547 1.8314 7.92707 3.021C8.17747 3.2846 8.43827 3.5586 8.71347 3.8338C8.76027 3.8806 9.17187 4.315 9.17187 5.1066C9.17187 5.8978 8.50667 6.5862 8.43027 6.6622C7.73867 7.3538 7.58747 8.4262 8.05827 9.2794C8.32467 9.6098 10.3115 11.5598 10.6719 11.8162C10.9539 11.9434 11.2667 12.0106 11.5783 12.0106C12.1663 12.0106 12.7187 11.7818 13.1343 11.3662C13.2099 11.2906 13.8983 10.6246 14.6899 10.6246C15.4815 10.6246 15.9155 11.0362 15.9627 11.083C16.2379 11.3582 16.5119 11.6186 16.7751 11.869C17.9563 12.993 18.9767 13.963 18.9919 15.185C19.0007 15.897 18.6643 16.5846 17.9623 17.2862C16.8615 18.387 15.3983 18.9926 13.8415 18.9926ZM4.58467 2.0042C4.21627 2.0042 3.81547 2.2262 3.35907 2.6826C2.48507 3.5566 2.00387 4.7186 2.00387 5.9546C2.00387 7.1906 2.48507 8.3526 3.35907 9.2266L10.5695 16.4374C11.4435 17.3114 12.6055 17.7926 13.8419 17.7926C15.0783 17.7926 16.2403 17.3114 17.1143 16.4374C17.5751 15.9766 17.7971 15.5714 17.7923 15.1998C17.7835 14.4834 16.9331 13.675 15.9487 12.7382C15.6783 12.481 15.3967 12.2134 15.1147 11.931C15.1151 11.9318 15.1155 11.9318 15.1151 11.9318C15.1127 11.9318 14.9695 11.8238 14.6903 11.8238C14.4787 11.8238 14.1423 12.0574 13.9819 12.2154C13.3411 12.8562 12.4875 13.2098 11.5791 13.2098C11.0835 13.2098 10.5855 13.0994 10.1379 12.8902C9.68867 12.6802 7.18787 10.1742 7.02987 9.897C6.27507 8.5718 6.50267 6.8922 7.58227 5.8126C7.73867 5.6538 7.97227 5.3174 7.97227 5.1054C7.97227 4.8138 7.85427 4.6706 7.84947 4.6646C7.58267 4.399 7.31507 4.1174 7.05787 3.8474C6.11667 2.8586 5.30387 2.0042 4.58467 2.0042Z" fill="black"/>
</svg>
