<svg width="40.000000" height="40.000000" viewBox="0 0 40 40" fill="none" xmlns="http://www.w3.org/2000/svg" xmlns:xlink="http://www.w3.org/1999/xlink">
	<desc>
			Created with Pixso.
	</desc>
	<defs/>
	<circle id="Ellipse 16" cx="20.000000" cy="20.000000" r="19.000000" stroke="#FFCF10" stroke-width="2.000000"/>
	<path id="?" d="M21.3828 24.2168C21.7734 24.5918 21.9688 25.0566 21.9688 25.6113C21.9688 26.166 21.7734 26.6309 21.3828 27.0059C21 27.3809 20.5273 27.5684 19.9648 27.5684C19.4023 27.5684 18.9297 27.3809 18.5469 27.0059C18.1719 26.6309 17.9844 26.1621 17.9844 25.5996C17.9844 25.0449 18.1758 24.5801 18.5586 24.2051C18.9414 23.8301 19.4102 23.6426 19.9648 23.6426C20.5195 23.6426 20.9922 23.834 21.3828 24.2168ZM20.1289 22.5059L19.7891 22.5059C19.7891 21.3809 19.9531 20.3418 20.2812 19.3887C20.6094 18.4355 20.9375 17.5566 21.2656 16.752C21.5938 15.9473 21.7578 15.1074 21.7578 14.2324C21.7578 13.3965 21.4961 12.6973 20.9727 12.1348C20.4492 11.5645 19.7734 11.2793 18.9453 11.2793C18.1641 11.2793 17.4688 11.5918 16.8594 12.2168C17.4375 12.2949 17.9375 12.5137 18.3594 12.873C18.7812 13.2324 18.9922 13.6895 18.9922 14.2441C18.9922 14.7832 18.8125 15.2285 18.4531 15.5801C18.0938 15.9316 17.6445 16.1074 17.1055 16.1074C16.5195 16.1074 16.0508 15.9121 15.6992 15.5215C15.3555 15.1309 15.1836 14.6387 15.1836 14.0449C15.1836 13.1074 15.6523 12.2637 16.5898 11.5137C17.5273 10.7637 18.7148 10.3887 20.1523 10.3887C20.8086 10.3887 21.4219 10.4707 21.9922 10.6348C22.5703 10.791 23.0938 11.0293 23.5625 11.3496C24.0312 11.6621 24.3984 12.084 24.6641 12.6152C24.9375 13.1465 25.0742 13.752 25.0742 14.4316C25.0742 15.7051 24.5 16.8965 23.3516 18.0059C22.875 18.459 22.3945 18.9043 21.9102 19.3418C20.7461 20.373 20.1523 21.4277 20.1289 22.5059Z" fill-rule="evenodd" fill="#000000"/>
</svg>
