<svg width="32" height="32" viewBox="0 0 32 32" fill="none" xmlns="http://www.w3.org/2000/svg">
<path d="M31.3135 1.19577C30.4083 -0.0813581 28.6387 -0.383293 27.3616 0.521902L19.2999 6.2355C18.1395 7.05775 17.7954 8.58952 18.4187 9.82125L16.2182 11.3847C16.0472 11.5072 15.9455 11.7042 15.9455 11.9134V18.3242L14.4526 19.6953L9.14202 16.8813L0.0706592 31.9999L23.6127 24.5484L15.6675 20.3388L17.0314 19.0856C17.1655 18.9632 17.2414 18.7907 17.2414 18.6087V12.2478L19.2163 10.8437C20.1798 11.6529 21.5969 11.7547 22.6718 10.9933L30.7336 5.27975C32.0108 4.37456 32.3127 2.60502 31.4074 1.3279L31.3135 1.19577Z" fill="#FFCF10"/>
</svg>
