<svg width="32" height="24" viewBox="0 0 32 24" fill="none" xmlns="http://www.w3.org/2000/svg">
<path d="M25.9899 23.7468C25.3018 23.7468 24.7411 23.1861 24.7411 22.4981V21.2493H25.9899C27.9803 21.2493 28.4873 20.5725 28.4873 20.5725V22.4981C28.4873 23.1861 27.9266 23.7468 27.2386 23.7468H25.9899Z" fill="#FFCF10"/>
<path d="M4.7614 23.7468C4.07335 23.7468 3.51266 23.1861 3.51266 22.4981V20.5725C3.51266 20.5725 4.01965 21.2493 6.01013 21.2493H7.25886V22.4981C7.25886 23.1861 6.69818 23.7468 6.01013 23.7468H4.7614Z" fill="#FFCF10"/>
<path d="M32 10.6351C32 9.04051 30.7063 7.74683 29.1117 7.74683C27.8729 7.74683 26.824 8.53103 26.4144 9.62742L25.0446 12.6956C24.9422 12.6319 20.8001 11.3307 16.0774 11.3307C11.3547 11.3307 7.04909 12.6381 6.9442 12.703L5.64677 9.82472C5.29587 8.62843 4.19949 7.74808 2.88832 7.74808C1.29369 7.74808 0 9.04051 0 10.6364C0 11.9638 0.901585 13.0702 2.1216 13.4086L2.65605 18.0027C3.22048 19.9519 6.01015 20.0006 6.01015 20.0006H25.9899C25.9899 20.0006 28.7795 19.9519 29.344 18.0002L29.8784 13.4061C31.0972 13.0689 32 11.9625 32 10.6351Z" fill="#FFCF10"/>
<path d="M2.88832 6.24833C4.7764 6.24833 6.47093 7.49457 7.05159 9.29274L7.68345 10.6976C8.90596 10.2568 13.3015 9.8322 16.0787 9.8322C18.7797 9.8322 23.1128 10.2268 24.3116 10.6639L25.0296 9.05424C25.6802 7.37344 27.3148 6.24833 29.1129 6.24833C29.2453 6.24833 29.3714 6.27581 29.5025 6.28705C29.5025 6.27955 29.5038 6.27081 29.5038 6.26332C29.5038 2.94419 26.814 0.253174 23.4936 0.253174C23.0766 0.253174 8.92594 0.253174 8.50886 0.253174C5.18974 0.253174 2.49872 2.94294 2.49872 6.26332C2.49872 6.27081 2.49997 6.27955 2.49997 6.28705C2.62984 6.27706 2.75596 6.24833 2.88832 6.24833Z" fill="#FFCF10"/>
</svg>
