<svg width="26" height="32" viewBox="0 0 26 32" fill="none" xmlns="http://www.w3.org/2000/svg">
<path d="M13 10.3999C12.5584 10.3999 12.2 10.7583 12.2 11.1999V19.1999C12.2 19.6415 12.5584 19.9999 13 19.9999C13.4416 19.9999 13.8 19.6415 13.8 19.1999V11.1999C13.8 10.7583 13.4416 10.3999 13 10.3999Z" fill="#828282"/>
<path d="M22.5856 10.7456L24.7664 8.5664C25.0784 8.2544 25.0784 7.7472 24.7664 7.4352C24.4544 7.1232 23.9472 7.1232 23.6352 7.4352L21.4544 9.6144C19.384 7.7872 16.7264 6.624 13.8 6.44V1.6H17.8C18.2416 1.6 18.6 1.2416 18.6 0.8C18.6 0.3584 18.2416 0 17.8 0H8.20001C7.75841 0 7.40001 0.3584 7.40001 0.8C7.40001 1.2416 7.75841 1.6 8.20001 1.6H12.2V6.44C5.51521 6.856 0.200012 12.4112 0.200012 19.2C0.200012 26.2576 5.94241 32 13 32C20.0576 32 25.8 26.2576 25.8 19.2C25.8 15.9584 24.5792 13.0032 22.5856 10.7456ZM13 30.4C6.82401 30.4 1.80001 25.3744 1.80001 19.2C1.80001 13.0256 6.82401 8 13 8C19.176 8 24.2 13.0256 24.2 19.2C24.2 25.3744 19.176 30.4 13 30.4Z" fill="#828282"/>
</svg>
