<svg width="90" height="67" viewBox="0 0 90 67" fill="none" xmlns="http://www.w3.org/2000/svg">
<path d="M19.5 0.169922C8.81646 0.169922 0.119995 8.78113 0.119995 19.3599V47.6399C0.119995 58.2187 8.81646 66.8299 19.5 66.8299H70.5C81.1835 66.8299 89.88 58.2187 89.88 47.6399V19.3599C89.88 8.78113 81.1835 0.169922 70.5 0.169922H19.5ZM19.5 6.22992H70.5C77.8989 6.22992 83.76 12.0336 83.76 19.3599V47.6399C83.76 54.9663 77.8989 60.7699 70.5 60.7699H19.5C12.1011 60.7699 6.24 54.9663 6.24 47.6399V19.3599C6.24 12.0336 12.1011 6.22992 19.5 6.22992ZM35.8519 16.1721C34.3178 16.162 32.9162 17.6856 32.9194 19.3599V47.6399C32.9143 47.7451 32.9143 47.8504 32.9194 47.9556C33.0215 48.9993 33.6304 49.9679 34.4859 50.4476C35.3415 50.9271 36.4175 50.9031 37.2544 50.3859L59.7262 36.2459C60.613 35.6924 61.1941 34.599 61.1941 33.4842C61.1941 32.3693 60.613 31.2759 59.7262 30.7224L37.2544 16.5824C36.8283 16.3201 36.341 16.1775 35.8519 16.1721ZM38.7525 24.8518L52.4269 33.4999L38.7525 42.1164V24.8518Z" fill="white"/>
</svg>
