<svg width="360" height="304" viewBox="0 0 360 304" fill="none" xmlns="http://www.w3.org/2000/svg">
<path fill-rule="evenodd" clip-rule="evenodd" d="M131.25 29.9707V29.9854V97.0312C131.25 103.4 134.191 108.695 138.062 114.023C141.224 118.379 146.715 121.576 152.622 125.039C158.529 128.511 164.93 132.361 168.56 139.248C172.355 146.461 174.462 156.162 170.449 164.326C166.553 172.259 158.143 175.213 150.073 177.832V187.31L209.971 187.471V179.722C201.065 178.361 193.513 172.338 189.771 164.795C185.604 156.394 187.767 146.327 191.704 138.867C195.315 132.029 201.675 128.211 207.539 124.805C213.406 121.398 218.871 118.294 221.997 114.009C225.871 108.696 228.75 103.389 228.75 97.0166V29.9707H131.25ZM180.029 44.9854C200.696 44.9854 217.5 61.863 217.5 82.5293C217.5 103.196 200.696 120 180.029 120C159.363 120 142.485 103.196 142.485 82.5293C142.485 61.8631 159.363 44.9854 180.029 44.9854Z" fill="black"/>
<path fill-rule="evenodd" clip-rule="evenodd" d="M180.029 52.5146C163.416 52.5146 150.015 65.916 150.015 82.5293C150.015 99.1425 163.416 112.471 180.029 112.471C196.642 112.471 209.971 99.1425 209.971 82.5293C209.969 65.916 196.642 52.5146 180.029 52.5146ZM179.956 66.6504L185.142 76.0254L195.088 77.9443L188.115 85.957L189.434 96.3867L179.927 91.9629L170.801 96.4893L171.914 85.7373L164.941 78.1055L175.122 75.8936L179.956 66.6504Z" fill="black"/>
<path fill-rule="evenodd" clip-rule="evenodd" d="M150.635 195.025H209.376C217.832 195.025 224.523 201.602 228.258 210.026H131.754C135.489 201.602 142.179 195.025 150.635 195.025Z" fill="black"/>
<path fill-rule="evenodd" clip-rule="evenodd" d="M93.3892 37.5101C92.457 37.6018 91.5928 38.0393 90.9667 38.736C90.3406 39.4328 89.9979 40.3381 90.0061 41.2748V78.7024C90.0013 79.3247 90.1514 79.938 90.4428 80.4877C90.7343 81.0375 91.158 81.5066 91.6757 81.8519L122.409 102.359C122.1 100.653 121.898 98.883 121.898 97.0267V92.9838L97.4799 76.7093V44.9808H121.898V37.5101H93.7736C93.6461 37.5036 93.5184 37.5036 93.3909 37.5101H93.3892Z" fill="black"/>
<path fill-rule="evenodd" clip-rule="evenodd" d="M238.102 37.51V44.9807H262.52V76.7092L238.102 92.9982V97.0266C238.102 98.8836 237.903 100.652 237.592 102.359L268.339 81.8517C268.854 81.5049 269.275 81.0354 269.564 80.4857C269.853 79.9361 270.001 79.3232 269.994 78.7023V41.2746C269.996 40.7797 269.9 40.2894 269.712 39.8318C269.523 39.3741 269.246 38.9586 268.896 38.6086C268.546 38.2586 268.13 37.9814 267.673 37.7929C267.215 37.6043 266.725 37.5082 266.23 37.51H238.105H238.102Z" fill="black"/>
<rect x="95.6667" y="211.5" width="168.667" height="90.3333" rx="6.5" fill="white" stroke="black" stroke-width="3"/>
<rect x="1.5" y="258.167" width="357" height="43.6667" rx="6.5" fill="white" stroke="black" stroke-width="3"/>
</svg>
