<svg width="573" height="224" viewBox="0 0 573 224" fill="none" xmlns="http://www.w3.org/2000/svg">
<path fill-rule="evenodd" clip-rule="evenodd" d="M572.481 211.76C572.613 212.577 572.058 213.348 571.24 213.481C515.288 222.561 408.697 224.442 298.318 223.121C187.89 221.8 73.5196 217.272 1.92104 213.498C1.09377 213.454 0.458474 212.748 0.502079 211.921C0.545685 211.094 1.25168 210.458 2.07896 210.502C73.6458 214.274 187.974 218.801 298.354 220.122C408.782 221.442 515.109 219.55 570.76 210.519C571.577 210.387 572.348 210.942 572.481 211.76Z" fill="#FFCF10"/>
<path d="M3 183H59V202H3V183Z" fill="#FFCF10"/>
<path opacity="0.2" d="M67 163H123V202H67V163Z" fill="#FFCF10"/>
<path opacity="0.2" d="M131 143H187V202H131V143Z" fill="#FFCF10"/>
<path opacity="0.2" d="M195 123H251V202H195V123Z" fill="#FFCF10"/>
<path opacity="0.2" d="M259 103H315V202H259V103Z" fill="#FFCF10"/>
<path opacity="0.2" d="M323 83H379V202H323V83Z" fill="#FFCF10"/>
<path opacity="0.2" d="M387 63H443V202H387V63Z" fill="#FFCF10"/>
<path opacity="0.2" d="M451 43H507V202H451V43Z" fill="#FFCF10"/>
<path d="M515 23H571V202H515V23Z" fill="#FFCF10"/>
<path d="M534.932 12.82L534.862 11H527.26V0.98999H528.478V9.97799H533.602V0.98999H534.82V9.97799H535.94V12.82H534.932Z" fill="black"/>
<path d="M540.483 11.126C539.437 11.126 538.583 10.7853 537.921 10.104C537.267 9.42266 536.941 8.52666 536.941 7.41599V7.30399C536.941 6.20266 537.258 5.30199 537.893 4.60199C538.537 3.90199 539.363 3.55199 540.371 3.55199C541.304 3.55199 542.083 3.85532 542.709 4.46199C543.343 5.05932 543.661 5.96932 543.661 7.19199V7.56999H538.145C538.201 9.29666 538.985 10.16 540.497 10.16C541.645 10.16 542.293 9.73532 542.443 8.88599H543.605C543.474 9.61399 543.133 10.1693 542.583 10.552C542.032 10.9347 541.332 11.126 540.483 11.126ZM542.471 6.63199C542.368 5.22266 541.668 4.51799 540.371 4.51799C539.783 4.51799 539.297 4.70466 538.915 5.07799C538.532 5.45132 538.289 5.96932 538.187 6.63199H542.471Z" fill="black"/>
<path d="M546.828 8.17199C546.744 9.17999 546.567 9.91732 546.296 10.384C546.025 10.8413 545.601 11.07 545.022 11.07C544.901 11.07 544.775 11.0607 544.644 11.042L544.532 11V9.89399L544.63 9.92199C544.723 9.94066 544.821 9.94999 544.924 9.94999C545.073 9.94999 545.195 9.90799 545.288 9.82399C545.391 9.73066 545.47 9.58599 545.526 9.38999C545.591 9.19399 545.638 9.01199 545.666 8.84399C545.694 8.66666 545.727 8.41932 545.764 8.10199C545.801 7.76599 545.857 6.81399 545.932 5.24599L545.974 3.67799H550.804V11H549.642V4.65799H547.01C546.926 6.67399 546.865 7.84532 546.828 8.17199Z" fill="black"/>
<path d="M553.153 3.67799H554.315V6.23999H555.617C556.438 6.23999 557.11 6.44066 557.633 6.84199C558.155 7.24332 558.417 7.84066 558.417 8.63399V8.67599C558.417 9.47866 558.155 10.0667 557.633 10.44C557.119 10.8133 556.447 11 555.617 11H553.153V3.67799ZM555.687 10.09C556.247 10.09 556.648 9.97332 556.891 9.73999C557.133 9.49732 557.255 9.14266 557.255 8.67599V8.63399C557.255 8.12999 557.129 7.76132 556.877 7.52799C556.634 7.28532 556.237 7.16399 555.687 7.16399H554.315V10.09H555.687Z" fill="black"/>
<path d="M10.53 171.126C9.08333 171.126 7.94 170.669 7.1 169.754C6.26933 168.839 5.854 167.607 5.854 166.058V165.946C5.854 164.462 6.29733 163.239 7.184 162.278C8.07067 161.317 9.19533 160.836 10.558 160.836C11.65 160.836 12.5693 161.121 13.316 161.69C14.072 162.259 14.506 163.067 14.618 164.112H13.414C13.274 163.337 12.9753 162.759 12.518 162.376C12.07 161.993 11.4213 161.802 10.572 161.802C9.536 161.802 8.70067 162.18 8.066 162.936C7.43133 163.683 7.114 164.681 7.114 165.932V166.044C7.114 167.323 7.41733 168.326 8.024 169.054C8.64 169.773 9.48467 170.132 10.558 170.132C11.3887 170.132 12.0653 169.927 12.588 169.516C13.12 169.096 13.4513 168.485 13.582 167.682H14.716C14.548 168.811 14.0953 169.67 13.358 170.258C12.6207 170.837 11.678 171.126 10.53 171.126Z" fill="black"/>
<path d="M19.4826 171.126C18.4372 171.126 17.5832 170.785 16.9206 170.104C16.2672 169.423 15.9406 168.527 15.9406 167.416V167.304C15.9406 166.203 16.2579 165.302 16.8926 164.602C17.5366 163.902 18.3626 163.552 19.3706 163.552C20.3039 163.552 21.0832 163.855 21.7086 164.462C22.3432 165.059 22.6606 165.969 22.6606 167.192V167.57H17.1446C17.2006 169.297 17.9846 170.16 19.4966 170.16C20.6446 170.16 21.2932 169.735 21.4426 168.886H22.6046C22.4739 169.614 22.1332 170.169 21.5826 170.552C21.0319 170.935 20.3319 171.126 19.4826 171.126ZM21.4706 166.632C21.3679 165.223 20.6679 164.518 19.3706 164.518C18.7826 164.518 18.2972 164.705 17.9146 165.078C17.5319 165.451 17.2892 165.969 17.1866 166.632H21.4706Z" fill="black"/>
<path d="M27.3696 162.334C26.8656 162.334 26.4363 162.161 26.0816 161.816C25.7269 161.461 25.5403 161.018 25.5216 160.486H26.5296C26.5856 161.177 26.8656 161.522 27.3696 161.522C27.9203 161.522 28.2283 161.177 28.2936 160.486H29.2736C29.2363 161.018 29.0356 161.461 28.6716 161.816C28.3169 162.161 27.8829 162.334 27.3696 162.334ZM24.3596 171V163.678H25.5216V169.32L29.2596 163.678H30.4216V171H29.2596V165.358L25.5216 171H24.3596Z" fill="black"/>
<path d="M36.9011 171V167.584C36.3971 168.125 35.6971 168.396 34.8011 168.396C34.0824 168.396 33.4944 168.167 33.0371 167.71C32.5797 167.243 32.3511 166.534 32.3511 165.582V163.678H33.5131V165.526C33.5131 166.767 34.0451 167.388 35.1091 167.388C35.9024 167.388 36.4997 167.117 36.9011 166.576V163.678H38.0631V171H36.9011Z" fill="black"/>
<path d="M42.3284 171.126C41.6097 171.126 41.0217 170.949 40.5644 170.594C40.1164 170.23 39.8924 169.689 39.8924 168.97C39.8924 168.569 39.9904 168.219 40.1864 167.92C40.3917 167.612 40.6717 167.374 41.0264 167.206C41.381 167.029 41.7684 166.903 42.1884 166.828C42.6084 166.744 43.0657 166.702 43.5604 166.702H44.6104V166.17C44.6104 165.582 44.489 165.162 44.2464 164.91C44.0037 164.649 43.6024 164.518 43.0424 164.518C42.0344 164.518 41.4744 164.957 41.3624 165.834H40.2004C40.275 165.05 40.5784 164.476 41.1104 164.112C41.6517 163.739 42.3144 163.552 43.0984 163.552C44.881 163.552 45.7724 164.425 45.7724 166.17V171H44.6104V170.076C44.0504 170.776 43.2897 171.126 42.3284 171.126ZM42.4404 170.202C43.075 170.202 43.593 170.048 43.9944 169.74C44.405 169.423 44.6104 168.989 44.6104 168.438V167.528H43.6024C41.9037 167.528 41.0544 168.009 41.0544 168.97C41.0544 169.791 41.5164 170.202 42.4404 170.202Z" fill="black"/>
<path d="M51.0929 171.126C50.0476 171.126 49.1889 170.79 48.5169 170.118C47.8449 169.437 47.5089 168.536 47.5089 167.416V167.304C47.5089 166.203 47.8496 165.302 48.5309 164.602C49.2216 163.902 50.0663 163.552 51.0649 163.552C51.9049 163.552 52.6189 163.762 53.2069 164.182C53.7949 164.593 54.1403 165.237 54.2429 166.114H53.0949C52.9269 165.05 52.2503 164.518 51.0649 164.518C50.3836 164.518 49.8189 164.775 49.3709 165.288C48.9323 165.792 48.7129 166.464 48.7129 167.304V167.416C48.7129 168.293 48.9276 168.97 49.3569 169.446C49.7956 169.922 50.3789 170.16 51.1069 170.16C51.6576 170.16 52.1289 170.006 52.5209 169.698C52.9223 169.381 53.1509 168.937 53.2069 168.368H54.2849C54.2103 169.171 53.8743 169.833 53.2769 170.356C52.6889 170.869 51.9609 171.126 51.0929 171.126Z" fill="black"/>
</svg>
