<svg width="164" height="223" viewBox="0 0 164 223" fill="none" xmlns="http://www.w3.org/2000/svg">
<path fill-rule="evenodd" clip-rule="evenodd" d="M149 103.34L164 112L149 120.66L149 113.5L2 113.5C1.17157 113.5 0.500001 112.828 0.500001 112C0.500001 111.172 1.17157 110.5 2 110.5L149 110.5L149 103.34Z" fill="#FFCF10"/>
<path fill-rule="evenodd" clip-rule="evenodd" d="M149 0.339722L164 8.99998L149 17.6602V10.5H118C108.53 10.5 101.578 10.5032 96.2544 11.2188C90.9745 11.9287 87.5223 13.3147 84.9185 15.9185C82.3147 18.5223 80.9287 21.9745 80.2189 27.2544C79.5032 32.5775 79.5 39.5295 79.5 49V174C79.5 183.47 79.5032 190.422 80.2189 195.746C80.9287 201.025 82.3147 204.478 84.9185 207.081C87.5223 209.685 90.9745 211.071 96.2544 211.781C101.578 212.497 108.53 212.5 118 212.5H149V205.34L164 214L149 222.66V215.5H117.881C108.554 215.5 101.401 215.5 95.8547 214.754C90.2421 214 86.0513 212.457 82.7972 209.203C79.5431 205.949 78.0002 201.758 77.2456 196.145C76.5 190.599 76.5 183.446 76.5 174.119V48.8812C76.5 39.5536 76.5 32.4006 77.2456 26.8547C78.0002 21.2421 79.5431 17.0513 82.7972 13.7972C86.0513 10.5431 90.2421 9.00018 95.8547 8.24558C101.401 7.49995 108.554 7.49996 117.881 7.49998H149V0.339722Z" fill="#FFCF10"/>
</svg>
