<svg width="600" height="344" viewBox="0 0 600 344" fill="none" xmlns="http://www.w3.org/2000/svg">
<path d="M139.26 227.56H141.436L143.42 235.96L145.644 227.56H147.404L149.676 236.008L151.724 227.56H153.708L150.844 239H148.716L146.46 230.664L144.14 239H142.108L139.26 227.56Z" fill="black"/>
<path d="M158.365 237.656C159.09 237.656 159.655 237.411 160.061 236.92C160.466 236.419 160.669 235.736 160.669 234.872V234.76C160.669 233.896 160.466 233.219 160.061 232.728C159.655 232.227 159.09 231.976 158.365 231.976C157.639 231.976 157.069 232.221 156.653 232.712C156.247 233.203 156.045 233.88 156.045 234.744V234.872C156.045 235.736 156.247 236.419 156.653 236.92C157.058 237.411 157.629 237.656 158.365 237.656ZM161.437 237.976C160.626 238.765 159.597 239.16 158.349 239.16C157.101 239.16 156.071 238.771 155.261 237.992C154.461 237.203 154.061 236.173 154.061 234.904V234.776C154.061 233.496 154.466 232.456 155.277 231.656C156.087 230.856 157.117 230.456 158.365 230.456C159.602 230.456 160.626 230.851 161.437 231.64C162.247 232.429 162.653 233.459 162.653 234.728V234.856C162.653 236.147 162.247 237.187 161.437 237.976Z" fill="black"/>
<path d="M164.465 230.632H166.401V232.2C166.955 231.08 167.862 230.515 169.121 230.504V232.312C168.225 232.312 167.547 232.493 167.089 232.856C166.63 233.208 166.401 233.805 166.401 234.648V239H164.465V230.632Z" fill="black"/>
<path d="M170.934 226.76H172.87V239H170.934V226.76Z" fill="black"/>
<path d="M178.429 239.16C177.341 239.16 176.455 238.792 175.773 238.056C175.09 237.32 174.749 236.285 174.749 234.952V234.824C174.749 233.501 175.095 232.445 175.789 231.656C176.493 230.856 177.399 230.456 178.509 230.456C179.746 230.456 180.637 230.941 181.181 231.912V226.76H183.117V239H181.181V237.592C180.935 238.029 180.562 238.403 180.061 238.712C179.57 239.011 179.026 239.16 178.429 239.16ZM178.909 237.624C179.613 237.624 180.178 237.389 180.605 236.92C181.031 236.451 181.245 235.763 181.245 234.856V234.728C181.245 233.821 181.047 233.139 180.653 232.68C180.258 232.211 179.703 231.976 178.989 231.976C178.274 231.976 177.719 232.221 177.325 232.712C176.93 233.192 176.733 233.88 176.733 234.776V234.904C176.733 235.789 176.93 236.467 177.325 236.936C177.719 237.395 178.247 237.624 178.909 237.624Z" fill="black"/>
<path d="M189.528 239.16C188.045 239.16 186.931 238.829 186.184 238.168C185.448 237.507 185.032 236.6 184.936 235.448H186.984C187.059 236.109 187.277 236.627 187.64 237C188.013 237.373 188.643 237.56 189.528 237.56C190.168 237.56 190.685 237.4 191.08 237.08C191.485 236.76 191.688 236.333 191.688 235.8C191.688 235.267 191.523 234.877 191.192 234.632C190.861 234.387 190.232 234.189 189.304 234.04C187.885 233.837 186.856 233.491 186.216 233C185.587 232.509 185.272 231.741 185.272 230.696C185.272 229.747 185.64 228.963 186.376 228.344C187.112 227.725 188.072 227.416 189.256 227.416C191.784 227.416 193.171 228.52 193.416 230.728H191.464C191.357 230.12 191.128 229.683 190.776 229.416C190.435 229.149 189.928 229.016 189.256 229.016C188.627 229.016 188.141 229.155 187.8 229.432C187.459 229.699 187.288 230.061 187.288 230.52C187.288 231.021 187.443 231.395 187.752 231.64C188.072 231.875 188.707 232.061 189.656 232.2C191.085 232.403 192.12 232.749 192.76 233.24C193.411 233.731 193.736 234.525 193.736 235.624C193.736 236.627 193.341 237.469 192.552 238.152C191.773 238.824 190.765 239.16 189.528 239.16Z" fill="black"/>
<path d="M195.699 226.76H197.635V234.312L200.627 230.632H202.739L199.491 234.472L203.011 239H200.771L197.635 234.888V239H195.699V226.76Z" fill="black"/>
<path d="M204.45 230.632H206.386V239H204.45V230.632ZM206.21 228.936C205.986 229.149 205.714 229.256 205.394 229.256C205.074 229.256 204.802 229.149 204.578 228.936C204.354 228.723 204.242 228.461 204.242 228.152C204.242 227.832 204.354 227.565 204.578 227.352C204.802 227.139 205.074 227.032 205.394 227.032C205.714 227.032 205.986 227.139 206.21 227.352C206.434 227.565 206.546 227.832 206.546 228.152C206.546 228.461 206.434 228.723 206.21 228.936Z" fill="black"/>
<path d="M208.856 226.76H210.792V239H208.856V226.76Z" fill="black"/>
<path d="M213.263 226.76H215.199V239H213.263V226.76Z" fill="black"/>
<path d="M220.485 239.16C219.397 239.16 218.549 238.925 217.941 238.456C217.343 237.976 217.023 237.288 216.981 236.392H218.805C218.869 236.84 219.023 237.176 219.269 237.4C219.514 237.624 219.914 237.736 220.469 237.736C221.471 237.736 221.973 237.379 221.973 236.664C221.973 236.333 221.834 236.088 221.557 235.928C221.29 235.757 220.831 235.619 220.181 235.512C219.061 235.341 218.277 235.069 217.829 234.696C217.381 234.323 217.157 233.747 217.157 232.968C217.157 232.179 217.466 231.565 218.085 231.128C218.714 230.68 219.45 230.456 220.293 230.456C222.298 230.456 223.391 231.299 223.573 232.984H221.781C221.695 232.589 221.535 232.307 221.301 232.136C221.066 231.955 220.73 231.864 220.293 231.864C219.877 231.864 219.551 231.955 219.317 232.136C219.082 232.317 218.965 232.557 218.965 232.856C218.965 233.165 219.082 233.395 219.317 233.544C219.562 233.693 220.021 233.821 220.693 233.928C221.781 234.099 222.575 234.36 223.077 234.712C223.578 235.064 223.829 235.656 223.829 236.488C223.829 237.341 223.541 238.003 222.965 238.472C222.389 238.931 221.562 239.16 220.485 239.16Z" fill="black"/>
<path d="M229.209 233.736H233.049V235.336H229.209V233.736Z" fill="black"/>
<path d="M240.722 232.68V239H239.058V230.632H241.73L243.826 235.848L245.938 230.632H248.45V239H246.546V232.68L243.906 239H243.266L240.722 232.68Z" fill="black"/>
<path d="M254.441 239.16C253.183 239.16 252.159 238.776 251.369 238.008C250.591 237.24 250.201 236.205 250.201 234.904V234.776C250.201 233.496 250.591 232.456 251.369 231.656C252.159 230.856 253.156 230.456 254.361 230.456C255.492 230.456 256.431 230.808 257.177 231.512C257.935 232.216 258.313 233.272 258.313 234.68V235.24H252.185C252.217 236.04 252.425 236.653 252.809 237.08C253.204 237.507 253.764 237.72 254.489 237.72C255.62 237.72 256.26 237.293 256.409 236.44H258.281C258.143 237.325 257.737 238.003 257.065 238.472C256.404 238.931 255.529 239.16 254.441 239.16ZM256.393 233.944C256.287 232.557 255.609 231.864 254.361 231.864C253.785 231.864 253.305 232.051 252.921 232.424C252.548 232.787 252.313 233.293 252.217 233.944H256.393Z" fill="black"/>
<path d="M263.68 234.856L260.96 239H258.864L261.92 234.52L259.104 230.632H261.12L263.68 234.424V230.632H265.568V234.424L268.128 230.632H270.144L267.328 234.488L270.4 239H268.272L265.568 234.856V239H263.68V234.856Z" fill="black"/>
<path d="M274.079 235.448C273.962 236.429 273.797 237.133 273.583 237.56H276.832V232.056H274.288C274.202 233.795 274.133 234.925 274.079 235.448ZM272.544 241.032H270.896V237.56H271.423C271.701 237.464 271.903 237.24 272.031 236.888C272.159 236.525 272.266 236.003 272.352 235.32C272.522 233.944 272.608 232.381 272.608 230.632H278.751V237.56H279.967V241.032H278.32L278.255 239H272.608L272.544 241.032Z" fill="black"/>
<path d="M283.741 238.152L280.429 230.632H282.525L284.749 236.024L286.797 230.632H288.685L284.125 241.864H282.221L283.741 238.152Z" fill="black"/>
<path d="M295.544 235.448H292.072V239H290.136V230.632H292.072V234.008H295.544V230.632H297.48V239H295.544V235.448Z" fill="black"/>
<path d="M301.969 239.16C301.148 239.16 300.476 238.957 299.953 238.552C299.43 238.136 299.169 237.512 299.169 236.68C299.169 235.763 299.558 235.091 300.337 234.664C301.126 234.237 302.166 234.024 303.457 234.024H304.497V233.592C304.497 233.005 304.385 232.579 304.161 232.312C303.937 232.045 303.542 231.912 302.977 231.912C302.028 231.912 301.494 232.349 301.377 233.224H299.505C299.59 232.296 299.958 231.603 300.609 231.144C301.26 230.685 302.086 230.456 303.089 230.456C305.318 230.456 306.433 231.475 306.433 233.512V239H304.529V237.976C303.91 238.765 303.057 239.16 301.969 239.16ZM302.433 237.768C303.052 237.768 303.548 237.619 303.921 237.32C304.305 237.021 304.497 236.605 304.497 236.072V235.24H303.505C301.894 235.24 301.089 235.693 301.089 236.6C301.089 237.379 301.537 237.768 302.433 237.768Z" fill="black"/>
<path d="M308.652 230.632H310.588V231.976C310.833 231.549 311.201 231.192 311.692 230.904C312.193 230.605 312.737 230.456 313.324 230.456C314.401 230.456 315.287 230.84 315.98 231.608C316.684 232.365 317.036 233.4 317.036 234.712V234.84C317.036 236.163 316.689 237.213 315.996 237.992C315.313 238.771 314.423 239.16 313.324 239.16C312.684 239.16 312.124 239.027 311.644 238.76C311.175 238.483 310.823 238.125 310.588 237.688V241.864H308.652V230.632ZM312.844 237.624C313.559 237.624 314.103 237.389 314.476 236.92C314.86 236.451 315.052 235.768 315.052 234.872V234.744C315.052 233.848 314.844 233.165 314.428 232.696C314.023 232.216 313.489 231.976 312.828 231.976C312.124 231.976 311.564 232.211 311.148 232.68C310.732 233.149 310.524 233.837 310.524 234.744V234.872C310.524 235.779 310.727 236.467 311.132 236.936C311.548 237.395 312.119 237.624 312.844 237.624Z" fill="black"/>
<path d="M322.521 237.656C323.246 237.656 323.812 237.411 324.217 236.92C324.622 236.419 324.825 235.736 324.825 234.872V234.76C324.825 233.896 324.622 233.219 324.217 232.728C323.812 232.227 323.246 231.976 322.521 231.976C321.796 231.976 321.225 232.221 320.809 232.712C320.404 233.203 320.201 233.88 320.201 234.744V234.872C320.201 235.736 320.404 236.419 320.809 236.92C321.214 237.411 321.785 237.656 322.521 237.656ZM325.593 237.976C324.782 238.765 323.753 239.16 322.505 239.16C321.257 239.16 320.228 238.771 319.417 237.992C318.617 237.203 318.217 236.173 318.217 234.904V234.776C318.217 233.496 318.622 232.456 319.433 231.656C320.244 230.856 321.273 230.456 322.521 230.456C323.758 230.456 324.782 230.851 325.593 231.64C326.404 232.429 326.809 233.459 326.809 234.728V234.856C326.809 236.147 326.404 237.187 325.593 237.976Z" fill="black"/>
<path d="M330.564 235.448C330.447 236.429 330.281 237.133 330.068 237.56H333.316V232.056H330.772C330.687 233.795 330.617 234.925 330.564 235.448ZM329.028 241.032H327.38V237.56H327.908C328.185 237.464 328.388 237.24 328.516 236.888C328.644 236.525 328.751 236.003 328.836 235.32C329.007 233.944 329.092 232.381 329.092 230.632H335.236V237.56H336.452V241.032H334.804L334.74 239H329.092L329.028 241.032Z" fill="black"/>
<path d="M343.263 235.448H339.791V239H337.855V230.632H339.791V234.008H343.263V230.632H345.199V239H343.263V235.448Z" fill="black"/>
<path d="M349.688 239.16C348.866 239.16 348.194 238.957 347.672 238.552C347.149 238.136 346.888 237.512 346.888 236.68C346.888 235.763 347.277 235.091 348.056 234.664C348.845 234.237 349.885 234.024 351.176 234.024H352.216V233.592C352.216 233.005 352.104 232.579 351.88 232.312C351.656 232.045 351.261 231.912 350.696 231.912C349.746 231.912 349.213 232.349 349.096 233.224H347.224C347.309 232.296 347.677 231.603 348.328 231.144C348.978 230.685 349.805 230.456 350.808 230.456C353.037 230.456 354.152 231.475 354.152 233.512V239H352.248V237.976C351.629 238.765 350.776 239.16 349.688 239.16ZM350.152 237.768C350.77 237.768 351.266 237.619 351.64 237.32C352.024 237.021 352.216 236.605 352.216 236.072V235.24H351.224C349.613 235.24 348.808 235.693 348.808 236.6C348.808 237.379 349.256 237.768 350.152 237.768Z" fill="black"/>
<path d="M359.587 232.04C358.552 232.04 358.035 232.461 358.035 233.304V233.352C358.035 233.779 358.157 234.093 358.403 234.296C358.648 234.499 359.043 234.6 359.587 234.6H360.771V232.04H359.587ZM357.635 239H355.507L357.795 235.56C356.653 235.208 356.083 234.467 356.083 233.336V233.288C356.083 232.435 356.371 231.779 356.947 231.32C357.523 230.861 358.317 230.632 359.331 230.632H362.691V239H360.771V235.928H359.619L357.635 239Z" fill="black"/>
<path d="M370.985 239.16C370.163 239.16 369.491 238.957 368.969 238.552C368.446 238.136 368.185 237.512 368.185 236.68C368.185 235.763 368.574 235.091 369.353 234.664C370.142 234.237 371.182 234.024 372.473 234.024H373.513V233.592C373.513 233.005 373.401 232.579 373.177 232.312C372.953 232.045 372.558 231.912 371.993 231.912C371.043 231.912 370.51 232.349 370.393 233.224H368.521C368.606 232.296 368.974 231.603 369.625 231.144C370.275 230.685 371.102 230.456 372.105 230.456C374.334 230.456 375.449 231.475 375.449 233.512V239H373.545V237.976C372.926 238.765 372.073 239.16 370.985 239.16ZM371.449 237.768C372.067 237.768 372.563 237.619 372.937 237.32C373.321 237.021 373.513 236.605 373.513 236.072V235.24H372.521C370.91 235.24 370.105 235.693 370.105 236.6C370.105 237.379 370.553 237.768 371.449 237.768Z" fill="black"/>
<path d="M381.332 239.16C380.105 239.16 379.092 238.781 378.292 238.024C377.502 237.256 377.108 236.221 377.108 234.92V234.792C377.108 233.501 377.508 232.456 378.308 231.656C379.118 230.856 380.126 230.456 381.332 230.456C382.356 230.456 383.225 230.712 383.94 231.224C384.654 231.725 385.06 232.515 385.156 233.592H383.284C383.124 232.536 382.484 232.008 381.364 232.008C380.692 232.008 380.142 232.253 379.716 232.744C379.3 233.235 379.092 233.907 379.092 234.76V234.888C379.092 235.795 379.294 236.488 379.7 236.968C380.116 237.437 380.686 237.672 381.412 237.672C381.945 237.672 382.398 237.517 382.772 237.208C383.145 236.899 383.364 236.456 383.428 235.88H385.204C385.14 236.851 384.756 237.64 384.052 238.248C383.348 238.856 382.441 239.16 381.332 239.16Z" fill="black"/>
<path d="M390.535 239.16C389.308 239.16 388.295 238.781 387.495 238.024C386.705 237.256 386.311 236.221 386.311 234.92V234.792C386.311 233.501 386.711 232.456 387.511 231.656C388.321 230.856 389.329 230.456 390.535 230.456C391.559 230.456 392.428 230.712 393.143 231.224C393.857 231.725 394.263 232.515 394.359 233.592H392.487C392.327 232.536 391.687 232.008 390.567 232.008C389.895 232.008 389.345 232.253 388.919 232.744C388.503 233.235 388.295 233.907 388.295 234.76V234.888C388.295 235.795 388.497 236.488 388.903 236.968C389.319 237.437 389.889 237.672 390.615 237.672C391.148 237.672 391.601 237.517 391.975 237.208C392.348 236.899 392.567 236.456 392.631 235.88H394.407C394.343 236.851 393.959 237.64 393.255 238.248C392.551 238.856 391.644 239.16 390.535 239.16Z" fill="black"/>
<path d="M399.818 237.656C400.543 237.656 401.109 237.411 401.514 236.92C401.919 236.419 402.122 235.736 402.122 234.872V234.76C402.122 233.896 401.919 233.219 401.514 232.728C401.109 232.227 400.543 231.976 399.818 231.976C399.093 231.976 398.522 232.221 398.106 232.712C397.701 233.203 397.498 233.88 397.498 234.744V234.872C397.498 235.736 397.701 236.419 398.106 236.92C398.511 237.411 399.082 237.656 399.818 237.656ZM402.89 237.976C402.079 238.765 401.05 239.16 399.802 239.16C398.554 239.16 397.525 238.771 396.714 237.992C395.914 237.203 395.514 236.173 395.514 234.904V234.776C395.514 233.496 395.919 232.456 396.73 231.656C397.541 230.856 398.57 230.456 399.818 230.456C401.055 230.456 402.079 230.851 402.89 231.64C403.701 232.429 404.106 233.459 404.106 234.728V234.856C404.106 236.147 403.701 237.187 402.89 237.976Z" fill="black"/>
<path d="M412.639 241.032L412.543 239H405.855V230.632H407.791V237.56H411.103V230.632H413.039V237.56H414.255V241.032H412.639Z" fill="black"/>
<path d="M415.668 239V230.632H417.604V236.552L421.22 230.632H423.14V239H421.22V233.08L417.604 239H415.668Z" fill="black"/>
<path d="M427.563 239.16C426.741 239.16 426.069 238.957 425.547 238.552C425.024 238.136 424.763 237.512 424.763 236.68C424.763 235.763 425.152 235.091 425.931 234.664C426.72 234.237 427.76 234.024 429.051 234.024H430.091V233.592C430.091 233.005 429.979 232.579 429.755 232.312C429.531 232.045 429.136 231.912 428.571 231.912C427.621 231.912 427.088 232.349 426.971 233.224H425.099C425.184 232.296 425.552 231.603 426.203 231.144C426.853 230.685 427.68 230.456 428.683 230.456C430.912 230.456 432.027 231.475 432.027 233.512V239H430.123V237.976C429.504 238.765 428.651 239.16 427.563 239.16ZM428.027 237.768C428.645 237.768 429.141 237.619 429.515 237.32C429.899 237.021 430.091 236.605 430.091 236.072V235.24H429.099C427.488 235.24 426.683 235.693 426.683 236.6C426.683 237.379 427.131 237.768 428.027 237.768Z" fill="black"/>
<path d="M441.03 241.032L440.934 239H434.246V230.632H436.182V237.56H439.494V230.632H441.43V237.56H442.646V241.032H441.03Z" fill="black"/>
<path d="M444.058 239V230.632H445.994V236.552L449.61 230.632H451.53V239H449.61V233.08L445.994 239H444.058Z" fill="black"/>
<path d="M456.977 232.04C455.943 232.04 455.425 232.461 455.425 233.304V233.352C455.425 233.779 455.548 234.093 455.793 234.296C456.039 234.499 456.433 234.6 456.977 234.6H458.161V232.04H456.977ZM455.025 239H452.897L455.185 235.56C454.044 235.208 453.473 234.467 453.473 233.336V233.288C453.473 232.435 453.761 231.779 454.337 231.32C454.913 230.861 455.708 230.632 456.721 230.632H460.081V239H458.161V235.928H457.009L455.025 239Z" fill="black"/>
<path d="M132.064 254.072H128.752V261H126.816V252.632H134V261H132.064V254.072Z" fill="black"/>
<path d="M140.044 259.656C140.77 259.656 141.335 259.411 141.74 258.92C142.146 258.419 142.348 257.736 142.348 256.872V256.76C142.348 255.896 142.146 255.219 141.74 254.728C141.335 254.227 140.77 253.976 140.044 253.976C139.319 253.976 138.748 254.221 138.332 254.712C137.927 255.203 137.724 255.88 137.724 256.744V256.872C137.724 257.736 137.927 258.419 138.332 258.92C138.738 259.411 139.308 259.656 140.044 259.656ZM143.116 259.976C142.306 260.765 141.276 261.16 140.028 261.16C138.78 261.16 137.751 260.771 136.94 259.992C136.14 259.203 135.74 258.173 135.74 256.904V256.776C135.74 255.496 136.146 254.456 136.956 253.656C137.767 252.856 138.796 252.456 140.044 252.456C141.282 252.456 142.306 252.851 143.116 253.64C143.927 254.429 144.332 255.459 144.332 256.728V256.856C144.332 258.147 143.927 259.187 143.116 259.976Z" fill="black"/>
<path d="M155.205 254.072H151.893V261H149.957V252.632H157.141V261H155.205V254.072Z" fill="black"/>
<path d="M159.441 252.632H161.377V253.976C161.622 253.549 161.99 253.192 162.481 252.904C162.982 252.605 163.526 252.456 164.113 252.456C165.19 252.456 166.076 252.84 166.769 253.608C167.473 254.365 167.825 255.4 167.825 256.712V256.84C167.825 258.163 167.478 259.213 166.785 259.992C166.102 260.771 165.212 261.16 164.113 261.16C163.473 261.16 162.913 261.027 162.433 260.76C161.964 260.483 161.612 260.125 161.377 259.688V263.864H159.441V252.632ZM163.633 259.624C164.348 259.624 164.892 259.389 165.265 258.92C165.649 258.451 165.841 257.768 165.841 256.872V256.744C165.841 255.848 165.633 255.165 165.217 254.696C164.812 254.216 164.278 253.976 163.617 253.976C162.913 253.976 162.353 254.211 161.937 254.68C161.521 255.149 161.313 255.837 161.313 256.744V256.872C161.313 257.779 161.516 258.467 161.921 258.936C162.337 259.395 162.908 259.624 163.633 259.624Z" fill="black"/>
<path d="M173.31 259.656C174.035 259.656 174.601 259.411 175.006 258.92C175.411 258.419 175.614 257.736 175.614 256.872V256.76C175.614 255.896 175.411 255.219 175.006 254.728C174.601 254.227 174.035 253.976 173.31 253.976C172.585 253.976 172.014 254.221 171.598 254.712C171.193 255.203 170.99 255.88 170.99 256.744V256.872C170.99 257.736 171.193 258.419 171.598 258.92C172.003 259.411 172.574 259.656 173.31 259.656ZM176.382 259.976C175.571 260.765 174.542 261.16 173.294 261.16C172.046 261.16 171.017 260.771 170.206 259.992C169.406 259.203 169.006 258.173 169.006 256.904V256.776C169.006 255.496 169.411 254.456 170.222 253.656C171.033 252.856 172.062 252.456 173.31 252.456C174.547 252.456 175.571 252.851 176.382 253.64C177.193 254.429 177.598 255.459 177.598 256.728V256.856C177.598 258.147 177.193 259.187 176.382 259.976Z" fill="black"/>
<path d="M179.347 252.632H182.723C184.761 252.632 185.779 253.331 185.779 254.728V254.76C185.779 255.752 185.283 256.365 184.291 256.6C185.529 256.856 186.147 257.485 186.147 258.488V258.536C186.147 259.336 185.875 259.949 185.331 260.376C184.798 260.792 184.03 261 183.027 261H179.347V252.632ZM181.283 253.928V256.056H182.451C182.921 256.056 183.262 255.971 183.475 255.8C183.689 255.619 183.795 255.336 183.795 254.952V254.92C183.795 254.547 183.678 254.291 183.443 254.152C183.219 254.003 182.867 253.928 182.387 253.928H181.283ZM181.283 257.352V259.704H182.659C183.662 259.704 184.163 259.32 184.163 258.552V258.52C184.163 257.741 183.683 257.352 182.723 257.352H181.283Z" fill="black"/>
<path d="M191.605 261.16C190.347 261.16 189.323 260.776 188.533 260.008C187.755 259.24 187.365 258.205 187.365 256.904V256.776C187.365 255.496 187.755 254.456 188.533 253.656C189.323 252.856 190.32 252.456 191.525 252.456C192.656 252.456 193.595 252.808 194.341 253.512C195.099 254.216 195.477 255.272 195.477 256.68V257.24H189.349C189.381 258.04 189.589 258.653 189.973 259.08C190.368 259.507 190.928 259.72 191.653 259.72C192.784 259.72 193.424 259.293 193.573 258.44H195.445C195.307 259.325 194.901 260.003 194.229 260.472C193.568 260.931 192.693 261.16 191.605 261.16ZM193.557 255.944C193.451 254.557 192.773 253.864 191.525 253.864C190.949 253.864 190.469 254.051 190.085 254.424C189.712 254.787 189.477 255.293 189.381 255.944H193.557Z" fill="black"/>
<path d="M197.207 252.632H199.143V253.976C199.388 253.549 199.756 253.192 200.247 252.904C200.748 252.605 201.292 252.456 201.879 252.456C202.956 252.456 203.841 252.84 204.535 253.608C205.239 254.365 205.591 255.4 205.591 256.712V256.84C205.591 258.163 205.244 259.213 204.551 259.992C203.868 260.771 202.977 261.16 201.879 261.16C201.239 261.16 200.679 261.027 200.199 260.76C199.729 260.483 199.377 260.125 199.143 259.688V263.864H197.207V252.632ZM201.399 259.624C202.113 259.624 202.657 259.389 203.031 258.92C203.415 258.451 203.607 257.768 203.607 256.872V256.744C203.607 255.848 203.399 255.165 202.983 254.696C202.577 254.216 202.044 253.976 201.383 253.976C200.679 253.976 200.119 254.211 199.703 254.68C199.287 255.149 199.079 255.837 199.079 256.744V256.872C199.079 257.779 199.281 258.467 199.687 258.936C200.103 259.395 200.673 259.624 201.399 259.624Z" fill="black"/>
<path d="M209.268 256.904V261H207.332V252.632H209.268V256.344L212.26 252.632H214.372L211.124 256.504L214.644 261H212.404L209.268 256.904Z" fill="black"/>
<path d="M219.246 261.16C217.987 261.16 216.963 260.776 216.174 260.008C215.395 259.24 215.006 258.205 215.006 256.904V256.776C215.006 255.496 215.395 254.456 216.174 253.656C216.963 252.856 217.961 252.456 219.166 252.456C220.297 252.456 221.235 252.808 221.982 253.512C222.739 254.216 223.118 255.272 223.118 256.68V257.24H216.99C217.022 258.04 217.23 258.653 217.614 259.08C218.009 259.507 218.569 259.72 219.294 259.72C220.425 259.72 221.065 259.293 221.214 258.44H223.086C222.947 259.325 222.542 260.003 221.87 260.472C221.209 260.931 220.334 261.16 219.246 261.16ZM221.198 255.944C221.091 254.557 220.414 253.864 219.166 253.864C218.59 253.864 218.11 254.051 217.726 254.424C217.353 254.787 217.118 255.293 217.022 255.944H221.198Z" fill="black"/>
<path d="M233.97 254.072H230.658V261H228.722V252.632H235.906V261H233.97V254.072Z" fill="black"/>
<path d="M238.207 252.632H240.143V253.976C240.388 253.549 240.756 253.192 241.247 252.904C241.748 252.605 242.292 252.456 242.879 252.456C243.956 252.456 244.841 252.84 245.535 253.608C246.239 254.365 246.591 255.4 246.591 256.712V256.84C246.591 258.163 246.244 259.213 245.551 259.992C244.868 260.771 243.977 261.16 242.879 261.16C242.239 261.16 241.679 261.027 241.199 260.76C240.729 260.483 240.377 260.125 240.143 259.688V263.864H238.207V252.632ZM242.399 259.624C243.113 259.624 243.657 259.389 244.031 258.92C244.415 258.451 244.607 257.768 244.607 256.872V256.744C244.607 255.848 244.399 255.165 243.983 254.696C243.577 254.216 243.044 253.976 242.383 253.976C241.679 253.976 241.119 254.211 240.703 254.68C240.287 255.149 240.079 255.837 240.079 256.744V256.872C240.079 257.779 240.281 258.467 240.687 258.936C241.103 259.395 241.673 259.624 242.399 259.624Z" fill="black"/>
<path d="M252.076 259.656C252.801 259.656 253.366 259.411 253.772 258.92C254.177 258.419 254.38 257.736 254.38 256.872V256.76C254.38 255.896 254.177 255.219 253.772 254.728C253.366 254.227 252.801 253.976 252.076 253.976C251.35 253.976 250.78 254.221 250.364 254.712C249.958 255.203 249.756 255.88 249.756 256.744V256.872C249.756 257.736 249.958 258.419 250.364 258.92C250.769 259.411 251.34 259.656 252.076 259.656ZM255.148 259.976C254.337 260.765 253.308 261.16 252.06 261.16C250.812 261.16 249.782 260.771 248.972 259.992C248.172 259.203 247.772 258.173 247.772 256.904V256.776C247.772 255.496 248.177 254.456 248.988 253.656C249.798 252.856 250.828 252.456 252.076 252.456C253.313 252.456 254.337 252.851 255.148 253.64C255.958 254.429 256.364 255.459 256.364 256.728V256.856C256.364 258.147 255.958 259.187 255.148 259.976Z" fill="black"/>
<path d="M263.937 252.472C265.228 252.536 266.284 252.936 267.105 253.672C267.926 254.408 268.337 255.421 268.337 256.712V256.84C268.337 258.141 267.921 259.176 267.089 259.944C266.268 260.701 265.217 261.101 263.937 261.144V263.864H262.033V261.144C260.732 261.08 259.67 260.685 258.849 259.96C258.028 259.224 257.617 258.205 257.617 256.904V256.776C257.617 255.475 258.028 254.451 258.849 253.704C259.67 252.947 260.732 252.536 262.033 252.472V248.76H263.937V252.472ZM263.937 259.736C264.673 259.693 265.26 259.421 265.697 258.92C266.145 258.419 266.369 257.741 266.369 256.888V256.776C266.369 255.891 266.15 255.203 265.713 254.712C265.276 254.211 264.684 253.939 263.937 253.896V259.736ZM262.033 253.896C261.286 253.928 260.689 254.195 260.241 254.696C259.804 255.187 259.585 255.864 259.585 256.728V256.856C259.585 257.741 259.804 258.429 260.241 258.92C260.678 259.411 261.276 259.677 262.033 259.72V253.896Z" fill="black"/>
<path d="M273.824 261.16C272.566 261.16 271.542 260.776 270.752 260.008C269.974 259.24 269.584 258.205 269.584 256.904V256.776C269.584 255.496 269.974 254.456 270.752 253.656C271.542 252.856 272.539 252.456 273.744 252.456C274.875 252.456 275.814 252.808 276.56 253.512C277.318 254.216 277.696 255.272 277.696 256.68V257.24H271.568C271.6 258.04 271.808 258.653 272.192 259.08C272.587 259.507 273.147 259.72 273.872 259.72C275.003 259.72 275.643 259.293 275.792 258.44H277.664C277.526 259.325 277.12 260.003 276.448 260.472C275.787 260.931 274.912 261.16 273.824 261.16ZM275.776 255.944C275.67 254.557 274.992 253.864 273.744 253.864C273.168 253.864 272.688 254.051 272.304 254.424C271.931 254.787 271.696 255.293 271.6 255.944H275.776Z" fill="black"/>
<path d="M283.089 261.16C281.863 261.16 280.849 260.781 280.049 260.024C279.26 259.256 278.865 258.221 278.865 256.92V256.792C278.865 255.501 279.265 254.456 280.065 253.656C280.876 252.856 281.884 252.456 283.089 252.456C284.113 252.456 284.983 252.712 285.697 253.224C286.412 253.725 286.817 254.515 286.913 255.592H285.041C284.881 254.536 284.241 254.008 283.121 254.008C282.449 254.008 281.9 254.253 281.473 254.744C281.057 255.235 280.849 255.907 280.849 256.76V256.888C280.849 257.795 281.052 258.488 281.457 258.968C281.873 259.437 282.444 259.672 283.169 259.672C283.703 259.672 284.156 259.517 284.529 259.208C284.903 258.899 285.121 258.456 285.185 257.88H286.961C286.897 258.851 286.513 259.64 285.809 260.248C285.105 260.856 284.199 261.16 283.089 261.16Z" fill="black"/>
<path d="M292.293 261.16C291.066 261.16 290.053 260.781 289.253 260.024C288.463 259.256 288.069 258.221 288.069 256.92V256.792C288.069 255.501 288.469 254.456 289.269 253.656C290.079 252.856 291.087 252.456 292.293 252.456C293.317 252.456 294.186 252.712 294.901 253.224C295.615 253.725 296.021 254.515 296.117 255.592H294.245C294.085 254.536 293.445 254.008 292.325 254.008C291.653 254.008 291.103 254.253 290.677 254.744C290.261 255.235 290.053 255.907 290.053 256.76V256.888C290.053 257.795 290.255 258.488 290.661 258.968C291.077 259.437 291.647 259.672 292.373 259.672C292.906 259.672 293.359 259.517 293.733 259.208C294.106 258.899 294.325 258.456 294.389 257.88H296.165C296.101 258.851 295.717 259.64 295.013 260.248C294.309 260.856 293.402 261.16 292.293 261.16Z" fill="black"/>
<path d="M297.832 261V252.632H299.768V258.552L303.384 252.632H305.304V261H303.384V255.08L299.768 261H297.832Z" fill="black"/>
<path d="M311.279 259.656C312.004 259.656 312.569 259.411 312.975 258.92C313.38 258.419 313.583 257.736 313.583 256.872V256.76C313.583 255.896 313.38 255.219 312.975 254.728C312.569 254.227 312.004 253.976 311.279 253.976C310.553 253.976 309.983 254.221 309.567 254.712C309.162 255.203 308.959 255.88 308.959 256.744V256.872C308.959 257.736 309.162 258.419 309.567 258.92C309.972 259.411 310.543 259.656 311.279 259.656ZM314.351 259.976C313.54 260.765 312.511 261.16 311.263 261.16C310.015 261.16 308.986 260.771 308.175 259.992C307.375 259.203 306.975 258.173 306.975 256.904V256.776C306.975 255.496 307.38 254.456 308.191 253.656C309.001 252.856 310.031 252.456 311.279 252.456C312.516 252.456 313.54 252.851 314.351 253.64C315.161 254.429 315.567 255.459 315.567 256.728V256.856C315.567 258.147 315.161 259.187 314.351 259.976Z" fill="black"/>
<path d="M322.724 257.448H319.252V261H317.316V252.632H319.252V256.008H322.724V252.632H324.66V261H322.724V257.448Z" fill="black"/>
<path d="M329.149 261.16C328.327 261.16 327.655 260.957 327.133 260.552C326.61 260.136 326.349 259.512 326.349 258.68C326.349 257.763 326.738 257.091 327.517 256.664C328.306 256.237 329.346 256.024 330.637 256.024H331.677V255.592C331.677 255.005 331.565 254.579 331.341 254.312C331.117 254.045 330.722 253.912 330.157 253.912C329.207 253.912 328.674 254.349 328.557 255.224H326.685C326.77 254.296 327.138 253.603 327.789 253.144C328.439 252.685 329.266 252.456 330.269 252.456C332.498 252.456 333.613 253.475 333.613 255.512V261H331.709V259.976C331.09 260.765 330.237 261.16 329.149 261.16ZM329.613 259.768C330.231 259.768 330.727 259.619 331.101 259.32C331.485 259.021 331.677 258.605 331.677 258.072V257.24H330.685C329.074 257.24 328.269 257.693 328.269 258.6C328.269 259.379 328.717 259.768 329.613 259.768Z" fill="black"/>
<path d="M338.104 257.64C337.997 258.835 337.762 259.715 337.4 260.28C337.048 260.845 336.493 261.128 335.736 261.128C335.48 261.128 335.298 261.112 335.192 261.08C335.17 261.069 335.138 261.053 335.096 261.032C335.064 261.021 335.042 261.016 335.032 261.016V259.4L335.128 259.432C335.234 259.453 335.33 259.464 335.416 259.464C335.714 259.464 335.933 259.288 336.072 258.936C336.221 258.573 336.333 258.035 336.408 257.32C336.429 257.117 336.445 256.856 336.456 256.536C336.466 256.216 336.477 255.853 336.488 255.448C336.509 255.032 336.525 254.701 336.536 254.456L336.584 252.632H342.68V261H340.76V254.072H338.28C338.194 256.003 338.136 257.192 338.104 257.64Z" fill="black"/>
<path d="M344.988 252.632H346.924V255.384H348.428C349.399 255.384 350.177 255.629 350.764 256.12C351.351 256.611 351.644 257.309 351.644 258.216V258.264C351.644 259.181 351.356 259.869 350.78 260.328C350.204 260.776 349.404 261 348.38 261H344.988V252.632ZM348.14 259.608C349.175 259.608 349.692 259.155 349.692 258.248V258.2C349.692 257.261 349.175 256.792 348.14 256.792H346.924V259.608H348.14Z" fill="black"/>
<path d="M358.662 257.448H355.19V261H353.254V252.632H355.19V256.008H358.662V252.632H360.598V261H358.662V257.448Z" fill="black"/>
<path d="M366.638 259.656C367.364 259.656 367.929 259.411 368.334 258.92C368.74 258.419 368.942 257.736 368.942 256.872V256.76C368.942 255.896 368.74 255.219 368.334 254.728C367.929 254.227 367.364 253.976 366.638 253.976C365.913 253.976 365.342 254.221 364.926 254.712C364.521 255.203 364.318 255.88 364.318 256.744V256.872C364.318 257.736 364.521 258.419 364.926 258.92C365.332 259.411 365.902 259.656 366.638 259.656ZM369.71 259.976C368.9 260.765 367.87 261.16 366.622 261.16C365.374 261.16 364.345 260.771 363.534 259.992C362.734 259.203 362.334 258.173 362.334 256.904V256.776C362.334 255.496 362.74 254.456 363.55 253.656C364.361 252.856 365.39 252.456 366.638 252.456C367.876 252.456 368.9 252.851 369.71 253.64C370.521 254.429 370.926 255.459 370.926 256.728V256.856C370.926 258.147 370.521 259.187 369.71 259.976Z" fill="black"/>
<path d="M378.019 250.68C377.593 251.085 377.043 251.288 376.371 251.288C375.699 251.288 375.155 251.085 374.739 250.68C374.323 250.264 374.094 249.72 374.051 249.048H375.507C375.571 249.741 375.859 250.088 376.371 250.088C376.915 250.088 377.225 249.741 377.299 249.048H378.739C378.697 249.72 378.457 250.264 378.019 250.68ZM372.675 261V252.632H374.611V258.552L378.227 252.632H380.147V261H378.227V255.08L374.611 261H372.675Z" fill="black"/>
<path d="M391.502 254.072H388.19V261H386.254V252.632H393.438V261H391.502V254.072Z" fill="black"/>
<path d="M399.482 259.656C400.207 259.656 400.773 259.411 401.178 258.92C401.583 258.419 401.786 257.736 401.786 256.872V256.76C401.786 255.896 401.583 255.219 401.178 254.728C400.773 254.227 400.207 253.976 399.482 253.976C398.757 253.976 398.186 254.221 397.77 254.712C397.365 255.203 397.162 255.88 397.162 256.744V256.872C397.162 257.736 397.365 258.419 397.77 258.92C398.175 259.411 398.746 259.656 399.482 259.656ZM402.554 259.976C401.743 260.765 400.714 261.16 399.466 261.16C398.218 261.16 397.189 260.771 396.378 259.992C395.578 259.203 395.178 258.173 395.178 256.904V256.776C395.178 255.496 395.583 254.456 396.394 253.656C397.205 252.856 398.234 252.456 399.482 252.456C400.719 252.456 401.743 252.851 402.554 253.64C403.365 254.429 403.77 255.459 403.77 256.728V256.856C403.77 258.147 403.365 259.187 402.554 259.976Z" fill="black"/>
<path d="M407.525 257.448C407.407 258.429 407.242 259.133 407.029 259.56H410.277V254.056H407.733C407.647 255.795 407.578 256.925 407.525 257.448ZM405.989 263.032H404.341V259.56H404.869C405.146 259.464 405.349 259.24 405.477 258.888C405.605 258.525 405.711 258.003 405.797 257.32C405.967 255.944 406.053 254.381 406.053 252.632H412.197V259.56H413.413V263.032H411.765L411.701 261H406.053L405.989 263.032Z" fill="black"/>
<path d="M416.752 254.072V261H414.816V252.632H420.4V254.072H416.752Z" fill="black"/>
<path d="M425.451 259.656C426.176 259.656 426.741 259.411 427.147 258.92C427.552 258.419 427.755 257.736 427.755 256.872V256.76C427.755 255.896 427.552 255.219 427.147 254.728C426.741 254.227 426.176 253.976 425.451 253.976C424.725 253.976 424.155 254.221 423.739 254.712C423.333 255.203 423.131 255.88 423.131 256.744V256.872C423.131 257.736 423.333 258.419 423.739 258.92C424.144 259.411 424.715 259.656 425.451 259.656ZM428.523 259.976C427.712 260.765 426.683 261.16 425.435 261.16C424.187 261.16 423.157 260.771 422.347 259.992C421.547 259.203 421.147 258.173 421.147 256.904V256.776C421.147 255.496 421.552 254.456 422.363 253.656C423.173 252.856 424.203 252.456 425.451 252.456C426.688 252.456 427.712 252.851 428.523 253.64C429.333 254.429 429.739 255.459 429.739 256.728V256.856C429.739 258.147 429.333 259.187 428.523 259.976Z" fill="black"/>
<path d="M437.51 254.072H434.95V261H433.014V254.072H430.454V252.632H437.51V254.072Z" fill="black"/>
<path d="M442.529 259.656C443.254 259.656 443.819 259.411 444.225 258.92C444.63 258.419 444.833 257.736 444.833 256.872V256.76C444.833 255.896 444.63 255.219 444.225 254.728C443.819 254.227 443.254 253.976 442.529 253.976C441.803 253.976 441.233 254.221 440.817 254.712C440.411 255.203 440.209 255.88 440.209 256.744V256.872C440.209 257.736 440.411 258.419 440.817 258.92C441.222 259.411 441.793 259.656 442.529 259.656ZM445.601 259.976C444.79 260.765 443.761 261.16 442.513 261.16C441.265 261.16 440.235 260.771 439.425 259.992C438.625 259.203 438.225 258.173 438.225 256.904V256.776C438.225 255.496 438.63 254.456 439.441 253.656C440.251 252.856 441.281 252.456 442.529 252.456C443.766 252.456 444.79 252.851 445.601 253.64C446.411 254.429 446.817 255.459 446.817 256.728V256.856C446.817 258.147 446.411 259.187 445.601 259.976Z" fill="black"/>
<path d="M448.566 252.632H451.942C453.979 252.632 454.998 253.331 454.998 254.728V254.76C454.998 255.752 454.502 256.365 453.51 256.6C454.747 256.856 455.366 257.485 455.366 258.488V258.536C455.366 259.336 455.094 259.949 454.55 260.376C454.017 260.792 453.249 261 452.246 261H448.566V252.632ZM450.502 253.928V256.056H451.67C452.139 256.056 452.481 255.971 452.694 255.8C452.907 255.619 453.014 255.336 453.014 254.952V254.92C453.014 254.547 452.897 254.291 452.662 254.152C452.438 254.003 452.086 253.928 451.606 253.928H450.502ZM450.502 257.352V259.704H451.878C452.881 259.704 453.382 259.32 453.382 258.552V258.52C453.382 257.741 452.902 257.352 451.942 257.352H450.502Z" fill="black"/>
<path d="M459.08 256.904V261H457.144V252.632H459.08V256.344L462.072 252.632H464.184L460.936 256.504L464.456 261H462.216L459.08 256.904Z" fill="black"/>
<path d="M465.785 261V252.632H467.721V258.552L471.337 252.632H473.257V261H471.337V255.08L467.721 261H465.785Z" fill="black"/>
<path d="M137.152 283V274.632H139.088V280.552L142.704 274.632H144.624V283H142.704V277.08L139.088 283H137.152Z" fill="black"/>
<path d="M152.666 278.904V283H150.73V274.632H152.666V278.344L155.658 274.632H157.77L154.522 278.504L158.042 283H155.802L152.666 278.904Z" fill="black"/>
<path d="M159.371 274.632H162.747C164.784 274.632 165.803 275.331 165.803 276.728V276.76C165.803 277.752 165.307 278.365 164.315 278.6C165.552 278.856 166.171 279.485 166.171 280.488V280.536C166.171 281.336 165.899 281.949 165.355 282.376C164.821 282.792 164.053 283 163.051 283H159.371V274.632ZM161.307 275.928V278.056H162.475C162.944 278.056 163.285 277.971 163.499 277.8C163.712 277.619 163.819 277.336 163.819 276.952V276.92C163.819 276.547 163.701 276.291 163.467 276.152C163.243 276.003 162.891 275.928 162.411 275.928H161.307ZM161.307 279.352V281.704H162.683C163.685 281.704 164.187 281.32 164.187 280.552V280.52C164.187 279.741 163.707 279.352 162.747 279.352H161.307Z" fill="black"/>
<path d="M170.219 283.16C169.398 283.16 168.726 282.957 168.203 282.552C167.68 282.136 167.419 281.512 167.419 280.68C167.419 279.763 167.808 279.091 168.587 278.664C169.376 278.237 170.416 278.024 171.707 278.024H172.747V277.592C172.747 277.005 172.635 276.579 172.411 276.312C172.187 276.045 171.792 275.912 171.227 275.912C170.278 275.912 169.744 276.349 169.627 277.224H167.755C167.84 276.296 168.208 275.603 168.859 275.144C169.51 274.685 170.336 274.456 171.339 274.456C173.568 274.456 174.683 275.475 174.683 277.512V283H172.779V281.976C172.16 282.765 171.307 283.16 170.219 283.16ZM170.683 281.768C171.302 281.768 171.798 281.619 172.171 281.32C172.555 281.021 172.747 280.605 172.747 280.072V279.24H171.755C170.144 279.24 169.339 279.693 169.339 280.6C169.339 281.379 169.787 281.768 170.683 281.768Z" fill="black"/>
<path d="M179.174 279.64C179.067 280.835 178.833 281.715 178.47 282.28C178.118 282.845 177.563 283.128 176.806 283.128C176.55 283.128 176.369 283.112 176.262 283.08C176.241 283.069 176.209 283.053 176.166 283.032C176.134 283.021 176.113 283.016 176.102 283.016V281.4L176.198 281.432C176.305 281.453 176.401 281.464 176.486 281.464C176.785 281.464 177.003 281.288 177.142 280.936C177.291 280.573 177.403 280.035 177.478 279.32C177.499 279.117 177.515 278.856 177.526 278.536C177.537 278.216 177.547 277.853 177.558 277.448C177.579 277.032 177.595 276.701 177.606 276.456L177.654 274.632H183.75V283H181.83V276.072H179.35C179.265 278.003 179.206 279.192 179.174 279.64Z" fill="black"/>
<path d="M186.058 283V274.632H187.994V280.552L191.61 274.632H193.53V283H191.61V277.08L187.994 283H186.058Z" fill="black"/>
<path d="M201.585 274.472C202.876 274.536 203.932 274.936 204.753 275.672C205.575 276.408 205.985 277.421 205.985 278.712V278.84C205.985 280.141 205.569 281.176 204.737 281.944C203.916 282.701 202.865 283.101 201.585 283.144V285.864H199.681V283.144C198.38 283.08 197.319 282.685 196.497 281.96C195.676 281.224 195.265 280.205 195.265 278.904V278.776C195.265 277.475 195.676 276.451 196.497 275.704C197.319 274.947 198.38 274.536 199.681 274.472V270.76H201.585V274.472ZM201.585 281.736C202.321 281.693 202.908 281.421 203.345 280.92C203.793 280.419 204.017 279.741 204.017 278.888V278.776C204.017 277.891 203.799 277.203 203.361 276.712C202.924 276.211 202.332 275.939 201.585 275.896V281.736ZM199.681 275.896C198.935 275.928 198.337 276.195 197.889 276.696C197.452 277.187 197.233 277.864 197.233 278.728V278.856C197.233 279.741 197.452 280.429 197.889 280.92C198.327 281.411 198.924 281.677 199.681 281.72V275.896Z" fill="black"/>
<path d="M207.793 283V274.632H209.729V280.552L213.345 274.632H215.265V283H213.345V277.08L209.729 283H207.793Z" fill="black"/>
<path d="M219.432 278.904V283H217.496V274.632H219.432V278.344L222.424 274.632H224.536L221.288 278.504L224.808 283H222.568L219.432 278.904Z" fill="black"/>
<path d="M228.172 283.16C227.351 283.16 226.679 282.957 226.156 282.552C225.633 282.136 225.372 281.512 225.372 280.68C225.372 279.763 225.761 279.091 226.54 278.664C227.329 278.237 228.369 278.024 229.66 278.024H230.7V277.592C230.7 277.005 230.588 276.579 230.364 276.312C230.14 276.045 229.745 275.912 229.18 275.912C228.231 275.912 227.697 276.349 227.58 277.224H225.708C225.793 276.296 226.161 275.603 226.812 275.144C227.463 274.685 228.289 274.456 229.292 274.456C231.521 274.456 232.636 275.475 232.636 277.512V283H230.732V281.976C230.113 282.765 229.26 283.16 228.172 283.16ZM228.636 281.768C229.255 281.768 229.751 281.619 230.124 281.32C230.508 281.021 230.7 280.605 230.7 280.072V279.24H229.708C228.097 279.24 227.292 279.693 227.292 280.6C227.292 281.379 227.74 281.768 228.636 281.768Z" fill="black"/>
<path d="M241.639 285.032L241.543 283H234.855V274.632H236.791V281.56H240.103V274.632H242.039V281.56H243.255V285.032H241.639Z" fill="black"/>
<path d="M244.668 283V274.632H246.604V280.552L250.22 274.632H252.14V283H250.22V277.08L246.604 283H244.668Z" fill="black"/>
<path d="M254.371 283V274.632H256.307V280.552L259.923 274.632H261.843V283H259.923V277.08L256.307 283H254.371Z" fill="black"/>
<path d="M269.613 276.68V283H267.949V274.632H270.621L272.717 279.848L274.829 274.632H277.341V283H275.437V276.68L272.797 283H272.157L269.613 276.68Z" fill="black"/>
<path d="M281.844 283.16C281.023 283.16 280.351 282.957 279.828 282.552C279.305 282.136 279.044 281.512 279.044 280.68C279.044 279.763 279.433 279.091 280.212 278.664C281.001 278.237 282.041 278.024 283.332 278.024H284.372V277.592C284.372 277.005 284.26 276.579 284.036 276.312C283.812 276.045 283.417 275.912 282.852 275.912C281.903 275.912 281.369 276.349 281.252 277.224H279.38C279.465 276.296 279.833 275.603 280.484 275.144C281.135 274.685 281.961 274.456 282.964 274.456C285.193 274.456 286.308 275.475 286.308 277.512V283H284.404V281.976C283.785 282.765 282.932 283.16 281.844 283.16ZM282.308 281.768C282.927 281.768 283.423 281.619 283.796 281.32C284.18 281.021 284.372 280.605 284.372 280.072V279.24H283.38C281.769 279.24 280.964 279.693 280.964 280.6C280.964 281.379 281.412 281.768 282.308 281.768Z" fill="black"/>
<path d="M292.191 283.16C290.964 283.16 289.951 282.781 289.151 282.024C288.362 281.256 287.967 280.221 287.967 278.92V278.792C287.967 277.501 288.367 276.456 289.167 275.656C289.978 274.856 290.986 274.456 292.191 274.456C293.215 274.456 294.084 274.712 294.799 275.224C295.514 275.725 295.919 276.515 296.015 277.592H294.143C293.983 276.536 293.343 276.008 292.223 276.008C291.551 276.008 291.002 276.253 290.575 276.744C290.159 277.235 289.951 277.907 289.951 278.76V278.888C289.951 279.795 290.154 280.488 290.559 280.968C290.975 281.437 291.546 281.672 292.271 281.672C292.804 281.672 293.258 281.517 293.631 281.208C294.004 280.899 294.223 280.456 294.287 279.88H296.063C295.999 280.851 295.615 281.64 294.911 282.248C294.207 282.856 293.3 283.16 292.191 283.16Z" fill="black"/>
<path d="M303.986 276.072H301.426V283H299.49V276.072H296.93V274.632H303.986V276.072Z" fill="black"/>
<path d="M308.941 283.16C307.683 283.16 306.659 282.776 305.869 282.008C305.091 281.24 304.701 280.205 304.701 278.904V278.776C304.701 277.496 305.091 276.456 305.869 275.656C306.659 274.856 307.656 274.456 308.861 274.456C309.992 274.456 310.931 274.808 311.677 275.512C312.435 276.216 312.813 277.272 312.813 278.68V279.24H306.685C306.717 280.04 306.925 280.653 307.309 281.08C307.704 281.507 308.264 281.72 308.989 281.72C310.12 281.72 310.76 281.293 310.909 280.44H312.781C312.643 281.325 312.237 282.003 311.565 282.472C310.904 282.931 310.029 283.16 308.941 283.16ZM310.893 277.944C310.787 276.557 310.109 275.864 308.861 275.864C308.285 275.864 307.805 276.051 307.421 276.424C307.048 276.787 306.813 277.293 306.717 277.944H310.893Z" fill="black"/>
<path d="M314.543 274.632H316.479V275.976C316.724 275.549 317.092 275.192 317.583 274.904C318.084 274.605 318.628 274.456 319.215 274.456C320.292 274.456 321.177 274.84 321.871 275.608C322.575 276.365 322.927 277.4 322.927 278.712V278.84C322.927 280.163 322.58 281.213 321.887 281.992C321.204 282.771 320.313 283.16 319.215 283.16C318.575 283.16 318.015 283.027 317.535 282.76C317.065 282.483 316.713 282.125 316.479 281.688V285.864H314.543V274.632ZM318.735 281.624C319.449 281.624 319.993 281.389 320.367 280.92C320.751 280.451 320.943 279.768 320.943 278.872V278.744C320.943 277.848 320.735 277.165 320.319 276.696C319.913 276.216 319.38 275.976 318.719 275.976C318.015 275.976 317.455 276.211 317.039 276.68C316.623 277.149 316.415 277.837 316.415 278.744V278.872C316.415 279.779 316.617 280.467 317.023 280.936C317.439 281.395 318.009 281.624 318.735 281.624Z" fill="black"/>
<path d="M328.412 281.656C329.137 281.656 329.702 281.411 330.108 280.92C330.513 280.419 330.716 279.736 330.716 278.872V278.76C330.716 277.896 330.513 277.219 330.108 276.728C329.702 276.227 329.137 275.976 328.412 275.976C327.686 275.976 327.116 276.221 326.7 276.712C326.294 277.203 326.092 277.88 326.092 278.744V278.872C326.092 279.736 326.294 280.419 326.7 280.92C327.105 281.411 327.676 281.656 328.412 281.656ZM331.484 281.976C330.673 282.765 329.644 283.16 328.396 283.16C327.148 283.16 326.118 282.771 325.308 281.992C324.508 281.203 324.108 280.173 324.108 278.904V278.776C324.108 277.496 324.513 276.456 325.324 275.656C326.134 274.856 327.164 274.456 328.412 274.456C329.649 274.456 330.673 274.851 331.484 275.64C332.294 276.429 332.7 277.459 332.7 278.728V278.856C332.7 280.147 332.294 281.187 331.484 281.976Z" fill="black"/>
<path d="M334.449 274.632H337.825C339.862 274.632 340.881 275.331 340.881 276.728V276.76C340.881 277.752 340.385 278.365 339.393 278.6C340.63 278.856 341.249 279.485 341.249 280.488V280.536C341.249 281.336 340.977 281.949 340.433 282.376C339.9 282.792 339.132 283 338.129 283H334.449V274.632ZM336.385 275.928V278.056H337.553C338.022 278.056 338.364 277.971 338.577 277.8C338.79 277.619 338.897 277.336 338.897 276.952V276.92C338.897 276.547 338.78 276.291 338.545 276.152C338.321 276.003 337.969 275.928 337.489 275.928H336.385ZM336.385 279.352V281.704H337.761C338.764 281.704 339.265 281.32 339.265 280.552V280.52C339.265 279.741 338.785 279.352 337.825 279.352H336.385Z" fill="black"/>
<path d="M352.15 276.072H348.838V283H346.902V274.632H354.086V283H352.15V276.072Z" fill="black"/>
<path d="M360.13 281.656C360.856 281.656 361.421 281.411 361.826 280.92C362.232 280.419 362.434 279.736 362.434 278.872V278.76C362.434 277.896 362.232 277.219 361.826 276.728C361.421 276.227 360.856 275.976 360.13 275.976C359.405 275.976 358.834 276.221 358.418 276.712C358.013 277.203 357.81 277.88 357.81 278.744V278.872C357.81 279.736 358.013 280.419 358.418 280.92C358.824 281.411 359.394 281.656 360.13 281.656ZM363.202 281.976C362.392 282.765 361.362 283.16 360.114 283.16C358.866 283.16 357.837 282.771 357.026 281.992C356.226 281.203 355.826 280.173 355.826 278.904V278.776C355.826 277.496 356.232 276.456 357.042 275.656C357.853 274.856 358.882 274.456 360.13 274.456C361.368 274.456 362.392 274.851 363.202 275.64C364.013 276.429 364.418 277.459 364.418 278.728V278.856C364.418 280.147 364.013 281.187 363.202 281.976Z" fill="black"/>
<path d="M370.043 274.632H373.419C375.456 274.632 376.475 275.331 376.475 276.728V276.76C376.475 277.752 375.979 278.365 374.987 278.6C376.224 278.856 376.843 279.485 376.843 280.488V280.536C376.843 281.336 376.571 281.949 376.027 282.376C375.493 282.792 374.725 283 373.723 283H370.043V274.632ZM371.979 275.928V278.056H373.147C373.616 278.056 373.957 277.971 374.171 277.8C374.384 277.619 374.491 277.336 374.491 276.952V276.92C374.491 276.547 374.373 276.291 374.139 276.152C373.915 276.003 373.563 275.928 373.083 275.928H371.979ZM371.979 279.352V281.704H373.355C374.357 281.704 374.859 281.32 374.859 280.552V280.52C374.859 279.741 374.379 279.352 373.419 279.352H371.979Z" fill="black"/>
<path d="M382.285 283.16C381.058 283.16 380.045 282.781 379.245 282.024C378.455 281.256 378.061 280.221 378.061 278.92V278.792C378.061 277.501 378.461 276.456 379.261 275.656C380.071 274.856 381.079 274.456 382.285 274.456C383.309 274.456 384.178 274.712 384.893 275.224C385.607 275.725 386.013 276.515 386.109 277.592H384.237C384.077 276.536 383.437 276.008 382.317 276.008C381.645 276.008 381.095 276.253 380.669 276.744C380.253 277.235 380.045 277.907 380.045 278.76V278.888C380.045 279.795 380.247 280.488 380.653 280.968C381.069 281.437 381.639 281.672 382.365 281.672C382.898 281.672 383.351 281.517 383.725 281.208C384.098 280.899 384.317 280.456 384.381 279.88H386.157C386.093 280.851 385.709 281.64 385.005 282.248C384.301 282.856 383.394 283.16 382.285 283.16Z" fill="black"/>
<path d="M391.504 283.16C390.245 283.16 389.221 282.776 388.432 282.008C387.653 281.24 387.264 280.205 387.264 278.904V278.776C387.264 277.496 387.653 276.456 388.432 275.656C389.221 274.856 390.219 274.456 391.424 274.456C392.555 274.456 393.493 274.808 394.24 275.512C394.997 276.216 395.376 277.272 395.376 278.68V279.24H389.248C389.28 280.04 389.488 280.653 389.872 281.08C390.267 281.507 390.827 281.72 391.552 281.72C392.683 281.72 393.323 281.293 393.472 280.44H395.344C395.205 281.325 394.8 282.003 394.128 282.472C393.467 282.931 392.592 283.16 391.504 283.16ZM393.456 277.944C393.349 276.557 392.672 275.864 391.424 275.864C390.848 275.864 390.368 276.051 389.984 276.424C389.611 276.787 389.376 277.293 389.28 277.944H393.456Z" fill="black"/>
<path d="M398.769 276.68V283H397.105V274.632H399.777L401.873 279.848L403.985 274.632H406.497V283H404.593V276.68L401.953 283H401.313L398.769 276.68Z" fill="black"/>
<path d="M411.256 282.152L407.944 274.632H410.04L412.264 280.024L414.312 274.632H416.2L411.64 285.864H409.736L411.256 282.152Z" fill="black"/>
<path d="M423.191 276.68V283H421.527V274.632H424.199L426.295 279.848L428.407 274.632H430.919V283H429.015V276.68L426.375 283H425.735L423.191 276.68Z" fill="black"/>
<path d="M433.23 283V274.632H435.166V280.552L438.782 274.632H440.702V283H438.782V277.08L435.166 283H433.23Z" fill="black"/>
<path d="M442.933 274.632H444.869V275.976C445.115 275.549 445.483 275.192 445.973 274.904C446.475 274.605 447.019 274.456 447.605 274.456C448.683 274.456 449.568 274.84 450.261 275.608C450.965 276.365 451.317 277.4 451.317 278.712V278.84C451.317 280.163 450.971 281.213 450.277 281.992C449.595 282.771 448.704 283.16 447.605 283.16C446.965 283.16 446.405 283.027 445.925 282.76C445.456 282.483 445.104 282.125 444.869 281.688V285.864H442.933V274.632ZM447.125 281.624C447.84 281.624 448.384 281.389 448.757 280.92C449.141 280.451 449.333 279.768 449.333 278.872V278.744C449.333 277.848 449.125 277.165 448.709 276.696C448.304 276.216 447.771 275.976 447.109 275.976C446.405 275.976 445.845 276.211 445.429 276.68C445.013 277.149 444.805 277.837 444.805 278.744V278.872C444.805 279.779 445.008 280.467 445.413 280.936C445.829 281.395 446.4 281.624 447.125 281.624Z" fill="black"/>
<path d="M455.272 282.152L451.96 274.632H454.056L456.28 280.024L458.328 274.632H460.216L455.656 285.864H453.752L455.272 282.152Z" fill="black"/>
<path d="M461.616 283.112C461.264 283.112 460.966 282.995 460.72 282.76C460.475 282.515 460.353 282.216 460.353 281.864C460.353 281.512 460.475 281.213 460.72 280.968C460.966 280.723 461.264 280.6 461.616 280.6C461.979 280.6 462.283 280.723 462.529 280.968C462.774 281.213 462.897 281.512 462.897 281.864C462.897 282.216 462.774 282.515 462.529 282.76C462.283 282.995 461.979 283.112 461.616 283.112Z" fill="black"/>
<g filter="url(#filter0_ddd_39_1306)">
<path d="M300.5 8L321.837 28.8328L351.05 22.8428L357.737 51.9041L385.551 62.6587L375.464 90.7218L393.048 114.806L369.391 132.961L371.163 162.729L341.445 165.212L326.842 191.213L300.5 177.235L274.158 191.213L259.555 165.212L229.837 162.729L231.609 132.961L207.952 114.806L225.536 90.7218L215.449 62.6587L243.263 51.9041L249.95 22.8428L279.163 28.8328L300.5 8Z" fill="#FFCF10"/>
</g>
<path d="M255.73 109H260.831L264.167 98.0313H264.321L267.657 109H272.758L278.55 89.3637H272.605L269.92 101.483H269.767L266.584 89.3637H261.905L258.721 101.445H258.568L255.883 89.3637H249.939L255.73 109Z" fill="#463907"/>
<path d="M298.059 99.1819C298.059 92.6236 293.84 89.0952 288.509 89.0952C283.14 89.0952 278.959 92.6236 278.959 99.1819C278.959 105.702 283.14 109.269 288.509 109.269C293.84 109.269 298.059 105.74 298.059 99.1819ZM292.574 99.1819C292.574 102.71 291.155 104.628 288.509 104.628C285.863 104.628 284.444 102.71 284.444 99.1819C284.444 95.6535 285.863 93.7358 288.509 93.7358C291.155 93.7358 292.574 95.6535 292.574 99.1819Z" fill="#463907"/>
<path d="M300.525 109H305.856V102.519H307.697L311.149 109H316.94L312.952 101.675C315.042 100.668 316.288 98.76 316.288 96.037C316.288 91.8566 313.364 89.3637 309.001 89.3637H300.525V109ZM305.856 98.3765V93.6208H307.736C309.605 93.6208 310.727 94.3495 310.727 96.037C310.727 97.7149 309.605 98.3765 307.736 98.3765H305.856Z" fill="#463907"/>
<path d="M318.561 109H331.83V104.705H323.892V89.3637H318.561V109Z" fill="#463907"/>
<path d="M341.541 109C347.524 109 351.321 105.318 351.321 99.1819C351.321 93.0455 347.524 89.3637 341.464 89.3637H333.985V109H341.541ZM339.316 104.474V93.8892H341.196C344.264 93.8892 345.951 95.0782 345.951 99.1819C345.951 103.286 344.264 104.474 341.349 104.474H339.316Z" fill="#463907"/>
<path d="M265.865 122.5H270.965C270.946 118.646 267.974 116.095 263.218 116.095C258.549 116.095 255.251 118.607 255.279 122.347C255.27 125.415 257.398 127.121 260.879 127.869L262.835 128.291C265.021 128.771 265.769 129.317 265.788 130.209C265.769 131.177 264.887 131.858 263.18 131.858C261.138 131.858 259.93 130.899 259.843 129.097H254.781C254.8 134.025 258.137 136.23 263.257 136.23C268.233 136.23 271.215 134.082 271.234 130.209C271.215 127.217 269.431 125.118 265.097 124.188L263.487 123.842C261.627 123.449 260.792 122.903 260.84 121.963C260.85 121.1 261.569 120.467 263.218 120.467C264.944 120.467 265.759 121.225 265.865 122.5Z" fill="#463907"/>
<path d="M273.262 136H278.593V130.938L280.357 128.636L284.767 136H291.134L284.346 125.108L290.98 116.364H284.767L278.861 124.303H278.593V116.364H273.262V136Z" fill="#463907"/>
<path d="M297.893 116.364H292.562V136H297.893V116.364Z" fill="#463907"/>
<path d="M300.42 136H313.69V131.705H305.751V116.364H300.42V136Z" fill="#463907"/>
<path d="M315.845 136H329.115V131.705H321.176V116.364H315.845V136Z" fill="#463907"/>
<path d="M341.855 122.5H346.956C346.936 118.646 343.964 116.095 339.208 116.095C334.539 116.095 331.241 118.607 331.27 122.347C331.26 125.415 333.388 127.121 336.869 127.869L338.825 128.291C341.011 128.771 341.759 129.317 341.778 130.209C341.759 131.177 340.877 131.858 339.17 131.858C337.128 131.858 335.92 130.899 335.833 129.097H330.771C330.79 134.025 334.127 136.23 339.247 136.23C344.223 136.23 347.205 134.082 347.224 130.209C347.205 127.217 345.422 125.118 341.088 124.188L339.477 123.842C337.617 123.449 336.783 122.903 336.831 121.963C336.84 121.1 337.559 120.467 339.208 120.467C340.934 120.467 341.749 121.225 341.855 122.5Z" fill="#463907"/>
<path d="M253.738 78L254.314 76.1676H257.326L257.902 78H260.169L257.224 69.2728H254.416L251.471 78H253.738ZM254.816 74.5654L255.784 71.4716H255.852L256.824 74.5654H254.816Z" fill="#6A570F"/>
<path d="M261.653 70.9858H264.304V78H266.383V70.9858H269.029V69.2728H261.653V70.9858Z" fill="#6A570F"/>
<path d="M271.694 70.9858H274.345V78H276.424V70.9858H279.071V69.2728H271.694V70.9858Z" fill="#6A570F"/>
<path d="M282.021 78H288.106V76.287H284.13V74.4929H287.795V72.7756H284.13V70.9858H288.106V69.2728H282.021V78Z" fill="#6A570F"/>
<path d="M299.269 72.4347C299.056 70.3466 297.5 69.1534 295.391 69.1534C293.064 69.1534 291.253 70.7515 291.253 73.6364C291.253 76.5086 293.022 78.1194 295.391 78.1194C297.786 78.1194 299.111 76.4915 299.269 74.9446L297.138 74.9319C296.989 75.7713 296.358 76.2699 295.434 76.2699C294.189 76.2699 293.405 75.3708 293.405 73.6364C293.405 71.9702 294.172 71.0029 295.446 71.0029C296.405 71.0029 297.032 71.5611 297.138 72.4347H299.269Z" fill="#6A570F"/>
<path d="M302.11 70.9858H304.761V78H306.84V70.9858H309.487V69.2728H302.11V70.9858Z" fill="#6A570F"/>
<path d="M320.276 73.6364C320.276 70.7515 318.452 69.1534 316.108 69.1534C313.756 69.1534 311.945 70.7515 311.945 73.6364C311.945 76.5086 313.756 78.1194 316.108 78.1194C318.452 78.1194 320.276 76.5213 320.276 73.6364ZM318.12 73.6364C318.12 75.3452 317.37 76.2699 316.108 76.2699C314.851 76.2699 314.097 75.3452 314.097 73.6364C314.097 71.9276 314.851 71.0029 316.108 71.0029C317.37 71.0029 318.12 71.9276 318.12 73.6364Z" fill="#6A570F"/>
<path d="M323.427 78H327.343C329.274 78 330.382 76.9688 330.382 75.5583C330.382 74.2969 329.466 73.5043 328.409 73.4574V73.3722C329.368 73.1719 330.041 72.4773 330.041 71.4801C330.041 70.1634 329.027 69.2728 327.066 69.2728H323.427V78ZM325.537 76.2997V74.2202H326.879C327.684 74.2202 328.179 74.6463 328.179 75.3154C328.179 75.9333 327.753 76.2997 326.841 76.2997H325.537ZM325.537 72.8608V70.9475H326.738C327.441 70.9475 327.889 71.3097 327.889 71.8892C327.889 72.5029 327.395 72.8608 326.704 72.8608H325.537Z" fill="#6A570F"/>
<path d="M335.204 78L335.779 76.1676H338.792L339.367 78H341.634L338.69 69.2728H335.881L332.937 78H335.204ZM336.282 74.5654L337.249 71.4716H337.317L338.289 74.5654H336.282Z" fill="#6A570F"/>
<path d="M344.494 78H346.603V74.4929H350.042V78H352.147V69.2728H350.042V72.7756H346.603V69.2728H344.494V78Z" fill="#6A570F"/>
<g style="mix-blend-mode:screen">
<path d="M300.5 8L321.837 28.8328L351.05 22.8428L357.737 51.9041L385.551 62.6587L375.464 90.7218L393.048 114.806L369.391 132.961L371.163 162.729L341.445 165.212L326.842 191.213L300.5 177.235L274.158 191.213L259.555 165.212L229.837 162.729L231.609 132.961L207.952 114.806L225.536 90.7218L215.449 62.6587L243.263 51.9041L249.95 22.8428L279.163 28.8328L300.5 8Z" fill="url(#paint0_linear_39_1306)"/>
</g>
<defs>
<filter id="filter0_ddd_39_1306" x="127.952" y="0" width="345.097" height="343.213" filterUnits="userSpaceOnUse" color-interpolation-filters="sRGB">
<feFlood flood-opacity="0" result="BackgroundImageFix"/>
<feColorMatrix in="SourceAlpha" type="matrix" values="0 0 0 0 0 0 0 0 0 0 0 0 0 0 0 0 0 0 127 0" result="hardAlpha"/>
<feOffset dy="12.759"/>
<feGaussianBlur stdDeviation="7.08835"/>
<feColorMatrix type="matrix" values="0 0 0 0 1 0 0 0 0 0.811765 0 0 0 0 0.0627451 0 0 0 0.0778807 0"/>
<feBlend mode="normal" in2="BackgroundImageFix" result="effect1_dropShadow_39_1306"/>
<feColorMatrix in="SourceAlpha" type="matrix" values="0 0 0 0 0 0 0 0 0 0 0 0 0 0 0 0 0 0 127 0" result="hardAlpha"/>
<feOffset dy="26.2812"/>
<feGaussianBlur stdDeviation="14.6007"/>
<feColorMatrix type="matrix" values="0 0 0 0 1 0 0 0 0 0.811765 0 0 0 0 0.0627451 0 0 0 0.0965974 0"/>
<feBlend mode="normal" in2="effect1_dropShadow_39_1306" result="effect2_dropShadow_39_1306"/>
<feColorMatrix in="SourceAlpha" type="matrix" values="0 0 0 0 0 0 0 0 0 0 0 0 0 0 0 0 0 0 127 0" result="hardAlpha"/>
<feOffset dy="72"/>
<feGaussianBlur stdDeviation="40"/>
<feColorMatrix type="matrix" values="0 0 0 0 1 0 0 0 0 0.811765 0 0 0 0 0.0627451 0 0 0 0.14 0"/>
<feBlend mode="normal" in2="effect2_dropShadow_39_1306" result="effect3_dropShadow_39_1306"/>
<feBlend mode="normal" in="SourceGraphic" in2="effect3_dropShadow_39_1306" result="shape"/>
</filter>
<linearGradient id="paint0_linear_39_1306" x1="394" y1="8" x2="207" y2="195" gradientUnits="userSpaceOnUse">
<stop stop-color="white" stop-opacity="0"/>
<stop offset="0.635491" stop-color="white" stop-opacity="0.25"/>
<stop offset="1" stop-color="white" stop-opacity="0"/>
</linearGradient>
</defs>
</svg>
