<svg width="72" height="68" viewBox="0 0 72 68" fill="none" xmlns="http://www.w3.org/2000/svg">
<path d="M47.5594 22.3562C47.3062 22.1031 46.9969 21.9344 46.6312 21.85L40.4437 20.95L37.6875 15.3812C37.4344 14.9594 37.0406 14.65 36.5906 14.4812C36.0844 14.3125 35.55 14.3687 35.0718 14.6219C34.7625 14.7906 34.4812 15.0437 34.2844 15.3531L31.5281 20.95L25.4812 21.8219L25.3687 21.85C24.7218 21.9906 24.3843 22.4125 24.2718 22.525L24.1593 22.6656C23.8781 23.0875 23.7656 23.5937 23.85 24.1C23.9062 24.4656 24.075 24.8031 24.3843 25.1687L28.7719 29.4437L27.7312 35.575C27.7031 35.8844 27.7312 36.3906 28.0687 36.8969L28.1812 37.0375C28.6031 37.5156 29.1094 37.6844 29.3625 37.7125C29.475 37.7406 29.5875 37.7406 29.6718 37.7406C29.9531 37.7406 30.2343 37.6844 30.5437 37.5156L35.9437 34.675L41.4281 37.5719C41.8781 37.7687 42.3844 37.7969 42.8344 37.6281C43.3406 37.4594 43.7625 37.0937 44.0156 36.5875C44.1562 36.2781 44.2125 35.9125 44.1844 35.4625L43.1437 29.4437L47.5875 25.1125C47.925 24.7469 48.0937 24.2687 48.0937 23.7906V23.65C48.0937 23.0594 47.8687 22.6375 47.5594 22.3562ZM40.2187 28.4594L41.2312 34.2812L36 31.525L30.7687 34.2812L31.7531 28.4594L27.5343 24.325L33.3843 23.4812L36 18.1937L38.6156 23.4812L44.4656 24.325L40.2187 28.4594Z" fill="black"/>
<path d="M67.7531 8.2656H59.5687V3.11873C59.5687 1.7406 58.4437 0.615601 57.0656 0.615601H14.9344C13.5562 0.615601 12.4312 1.7406 12.4312 3.11873V8.2656H4.24685C2.33435 8.2656 0.787476 9.81247 0.787476 11.725V18.8687C0.787476 26.3218 6.13123 32.6218 13.3312 33.9437C14.2594 37.6 15.9469 40.9187 18.3094 43.5906C21.2344 46.9093 25.0031 49.3 29.25 50.5656L24.9187 59.9031H24.8906C23.4844 59.9031 22.3594 61.0281 22.3594 62.4625V67.4125H49.6125V62.4625C49.6125 61.0562 48.4875 59.9312 47.0812 59.9312L42.7219 50.5937C46.9687 49.3281 50.7375 46.9375 53.6625 43.6187C56.025 40.9468 57.7125 37.6281 58.6406 33.9718C65.8687 32.65 71.1844 26.35 71.1844 18.8968V11.725C71.2125 9.81247 69.6656 8.2656 67.7531 8.2656ZM3.57185 18.8687V11.725C3.57185 11.3312 3.88123 11.0218 4.27498 11.0218H12.4594V26.2375C12.4594 27.8125 12.5719 29.3875 12.7969 30.9625C7.39685 29.4718 3.57185 24.5781 3.57185 18.8687ZM56.2781 31.8625C55.575 35.6593 53.9719 39.0625 51.6094 41.7343C48.9094 44.8 45.3375 46.9937 41.3437 48.0625L38.8125 48.7093L45.3094 62.6875H46.8562V64.6281H25.1437V62.6875H26.6906L33.1875 48.7093L30.6844 48.0625C26.6906 46.9937 23.1187 44.8 20.4187 41.7343C18.0562 39.0625 16.4531 35.6312 15.75 31.8625C15.4125 30.0343 15.2156 28.1218 15.2156 26.2375V3.37185H56.7844V26.2375C56.7844 28.15 56.6156 30.0343 56.2781 31.8625ZM68.4281 18.8687C68.4281 24.5781 64.575 29.4718 59.2312 30.9625C59.4562 29.4156 59.5687 27.8406 59.5687 26.2375V11.0218H67.7531C68.1469 11.0218 68.4562 11.3312 68.4562 11.725V18.8687H68.4281Z" fill="black"/>
</svg>
