<svg width="128" height="128" viewBox="0 0 128 128" fill="none" xmlns="http://www.w3.org/2000/svg">
<path d="M51.7863 123.603C40.0611 121.16 29.313 115.298 21.0076 106.992C12.7023 98.6869 6.83969 88.1831 4.39695 76.2136H0L3.41985 71.0839L7.08397 65.9541L10.5038 71.0839L13.9237 76.2136H9.52672C11.7252 86.7175 17.0992 96.2442 24.4275 103.572C32 110.901 41.2824 116.275 51.7863 118.473V123.603Z" fill="#FFCF10"/>
<path d="M123.603 76.2139C121.16 88.1833 115.298 98.6871 106.992 106.992C98.687 115.298 88.1832 121.16 76.2138 123.603V128L71.084 124.58L65.9542 121.16L71.084 117.496L76.2138 114.076V118.473C86.7176 116.275 96.2443 110.901 103.573 103.573C110.901 96.2444 116.275 86.7177 118.473 76.2139H123.603Z" fill="#FFCF10"/>
<path d="M51.7863 9.52672C41.2825 11.7252 32 17.0992 24.4275 24.4275C17.0993 32 11.7252 41.2824 9.52674 51.7863H4.39697C6.83972 40.0611 12.7023 29.313 21.0077 21.0076C29.313 12.7023 40.0611 6.83969 51.7863 4.39695V0L56.9161 3.41985L62.2901 7.08397L56.9161 10.5038L51.7863 13.9237V9.52672Z" fill="#FFCF10"/>
<path d="M76.2137 4.39697C88.1832 6.83972 98.687 12.7023 106.992 21.0077C115.298 29.313 121.16 40.0611 123.603 51.7863H128L124.58 56.9161L121.16 62.2901L117.496 56.9161L114.076 51.7863H118.473C116.275 41.2825 110.901 32 103.573 24.4275C96.2443 17.0993 86.7176 11.7252 76.2137 9.52674V4.39697Z" fill="#FFCF10"/>
<path d="M61.5573 78.6566V66.4429H49.0992C48.6107 68.8856 47.3893 71.0841 45.6794 72.794C43.4809 74.9925 40.3053 76.4581 36.8855 76.4581C33.4656 76.4581 30.5343 74.9925 28.0916 72.794C25.8931 70.5955 24.6718 67.42 24.6718 64.0001C24.6718 60.5803 25.8931 57.4047 28.0916 55.2062C30.5343 53.0078 33.4656 51.5421 36.8855 51.5421C40.3053 51.5421 43.4809 53.0078 45.6794 55.2062C47.3893 56.9161 48.6107 59.1146 49.0992 61.5574H61.5573V49.3436H53.9847H51.542V46.9009V27.1146V24.6719H53.9847H74.0153H76.458V27.1146V46.9009V49.3436H74.0153H66.4427V61.5574H78.9008C79.3893 59.1146 80.6107 56.9161 82.3206 55.2062C84.5191 53.0078 87.6947 51.5421 91.1145 51.5421C94.5343 51.5421 97.7099 53.0078 99.9084 55.2062C102.107 57.4047 103.573 60.5803 103.573 64.0001C103.573 67.42 102.107 70.5955 99.9084 72.794C97.7099 74.9925 94.5343 76.4581 91.1145 76.4581C87.6947 76.4581 84.5191 74.9925 82.3206 72.794C80.6107 71.0841 79.3893 68.8856 78.9008 66.4429H66.4427V78.6566H74.0153H76.458V81.0994V101.13V103.573H74.0153H53.9847H51.542V101.13V81.0994V78.6566H53.9847H61.5573ZM42.2595 58.6261C40.7939 57.4047 39.084 56.4276 36.8855 56.4276C34.9313 56.4276 32.9771 57.4047 31.7557 58.6261C30.2901 60.0917 29.5572 62.0459 29.5572 64.0001C29.5572 66.1986 30.2901 67.9085 31.7557 69.3742C32.9771 70.5955 34.9313 71.5726 36.8855 71.5726C39.084 71.5726 40.7939 70.5955 42.2595 69.3742C43.7252 67.9085 44.458 66.1986 44.458 64.0001C44.458 62.0459 43.7252 60.0917 42.2595 58.6261ZM96.4885 58.6261C95.0229 57.4047 93.0687 56.4276 91.1145 56.4276C88.916 56.4276 87.2061 57.4047 85.7405 58.6261C84.5191 60.0917 83.542 62.0459 83.542 64.0001C83.542 66.1986 84.5191 67.9085 85.7405 69.3742C87.2061 70.5955 88.916 71.5726 91.1145 71.5726C93.0687 71.5726 95.0229 70.5955 96.4885 69.3742C97.7099 67.9085 98.687 66.1986 98.687 64.0001C98.687 62.0459 97.7099 60.0917 96.4885 58.6261ZM71.5725 44.4581V29.5574H56.4275V44.4581H71.5725ZM71.5725 98.6871V83.5421H56.4275V98.6871H71.5725Z" fill="#FFCF10"/>
</svg>
