<svg width="128" height="112" viewBox="0 0 128 112" fill="none" xmlns="http://www.w3.org/2000/svg">
<path d="M15.2546 15.3853C12.6156 15.3853 10.1845 16.383 8.5528 18.1053C6.92106 19.8276 6.10064 22.1488 6.10064 24.5154V87.9737H3.06521C1.37065 87.964 -0.00645284 89.3384 2.27445e-05 91.033V99.1751C2.27445e-05 105.875 5.49513 111.37 12.1953 111.37H115.805C122.505 111.37 128 105.875 128 99.1751V91.033C128.006 89.35 126.647 87.9805 124.965 87.9737H121.905V24.5154C121.905 19.5034 117.781 15.3853 112.769 15.3853H106.675C104.992 15.3786 103.622 16.7377 103.615 18.4207C103.622 20.1037 104.992 21.4627 106.675 21.4561H112.769C114.51 21.4561 115.805 22.7745 115.805 24.5154V87.9737H12.1953V24.5154C12.1953 23.5058 12.5252 22.7704 12.981 22.2894C13.4367 21.8084 14.054 21.4561 15.2546 21.4561H21.3492C23.0229 21.4497 24.3781 20.0944 24.3847 18.4207C24.3783 16.747 23.0229 15.3918 21.3492 15.3853H15.2546ZM6.10064 94.0684C46.278 94.0684 87.4568 94.0684 121.905 94.0684V99.1751C121.905 102.604 119.234 105.276 115.805 105.276H12.1953C8.76617 105.276 6.10064 102.604 6.10064 99.1751V94.0684Z" fill="#FFCF10"/>
<path d="M42.4286 73.2634C42.0283 73.2648 41.6322 73.345 41.2629 73.4995C40.8936 73.6541 40.5584 73.8798 40.2764 74.1639C39.9944 74.448 39.7711 74.7849 39.6193 75.1553C39.4675 75.5258 39.3902 75.9225 39.3918 76.3228C39.3946 77.1273 39.7154 77.8982 40.2843 78.4671C40.8532 79.036 41.6241 79.3568 42.4286 79.3596H85.5742C86.3788 79.3568 87.1496 79.036 87.7185 78.4671C88.2875 77.8982 88.6083 77.1273 88.6111 76.3228C88.6126 75.9225 88.5353 75.5258 88.3835 75.1553C88.2318 74.7849 88.0085 74.448 87.7265 74.1639C87.4445 73.8798 87.1092 73.6541 86.7399 73.4995C86.3706 73.345 85.9745 73.2648 85.5742 73.2634H42.4286Z" fill="#FFCF10"/>
<path d="M62.6727 0.404679L31.2471 15.6532C28.9103 16.7997 28.9933 20.1589 31.384 21.1884L39.9963 24.8428V49.5548C40.0006 50.6418 40.5834 51.6441 41.5259 52.1855L62.4704 64.3332C63.4163 64.8821 64.5837 64.8821 65.5296 64.3332L86.4979 52.1855C87.4313 51.6381 88.0044 50.6369 88.0037 49.5548V24.8548L96.6398 21.1884C99.0305 20.1589 99.1135 16.7997 96.7767 15.6532L65.3273 0.404656C64.2753 -0.154003 63.754 -0.115431 62.6727 0.404679ZM64 6.54099L88.093 18.1947C80.0571 21.5858 72.0367 24.9969 64 28.408C55.9767 25.0029 47.9535 21.5944 39.9308 18.1945L64 6.54099ZM46.0969 27.4438L60.9646 33.7468V45.7754C60.9579 47.4584 62.317 48.8281 64 48.8347C65.6923 48.8414 67.0659 47.4677 67.0592 45.7754V33.7349L81.909 27.4438V47.799L64 58.1909L46.0969 47.799V27.4438Z" fill="#FFCF10"/>
</svg>
