<svg width="128" height="128" viewBox="0 0 128 128" fill="none" xmlns="http://www.w3.org/2000/svg">
<path d="M112.213 39.8689H15.6885V55.3968L39.4 76.3804C37.7213 79.9476 36.6721 83.9345 36.6721 88.1312C36.6721 99.4623 43.5967 109.325 53.459 113.312V128H74.4426V113.312C84.3049 109.115 91.2295 99.4623 91.2295 88.1312C91.2295 83.9345 90.1803 79.9476 88.5016 76.3804L112.213 55.3968V39.8689ZM108.016 44.0656V52.4591H19.8852V44.0656H108.016ZM70.2459 115.41V123.803H57.6557V115.41H70.2459ZM63.9508 111.213C51.1508 111.213 40.8688 100.931 40.8688 88.1312C40.8688 75.3312 51.1508 65.0492 63.9508 65.0492C76.7508 65.0492 87.0328 75.3312 87.0328 88.1312C87.0328 100.931 76.7508 111.213 63.9508 111.213ZM63.9508 60.8525C54.5082 60.8525 46.3246 65.4689 41.4984 72.6033L23.2426 56.6558H104.659L86.4033 72.8132C81.577 65.6787 73.3934 60.8525 63.9508 60.8525Z" fill="#FFCF10"/>
<path d="M28.2787 18.8853C32.8951 18.8853 36.6721 15.1082 36.6721 10.4918C36.6721 5.87544 32.8951 2.09839 28.2787 2.09839C23.6623 2.09839 19.8853 5.87544 19.8853 10.4918C19.8853 15.1082 23.6623 18.8853 28.2787 18.8853ZM28.2787 6.29511C30.5869 6.29511 32.4754 8.18363 32.4754 10.4918C32.4754 12.8 30.5869 14.6886 28.2787 14.6886C25.9705 14.6886 24.082 12.8 24.082 10.4918C24.082 8.18363 25.9705 6.29511 28.2787 6.29511Z" fill="#FFCF10"/>
<path d="M45.0656 35.6721C49.682 35.6721 53.459 31.8951 53.459 27.2787C53.459 22.6623 49.682 18.8853 45.0656 18.8853C40.4492 18.8853 36.6721 22.6623 36.6721 27.2787C36.6721 31.8951 40.4492 35.6721 45.0656 35.6721ZM45.0656 23.082C47.3738 23.082 49.2623 24.9705 49.2623 27.2787C49.2623 29.5869 47.3738 31.4754 45.0656 31.4754C42.7574 31.4754 40.8689 29.5869 40.8689 27.2787C40.8689 24.9705 42.7574 23.082 45.0656 23.082Z" fill="#FFCF10"/>
<path d="M63.9508 18.8853C68.5672 18.8853 72.3443 15.1082 72.3443 10.4918C72.3443 5.87544 68.5672 2.09839 63.9508 2.09839C59.3344 2.09839 55.5574 5.87544 55.5574 10.4918C55.5574 15.1082 59.3344 18.8853 63.9508 18.8853ZM63.9508 6.29511C66.259 6.29511 68.1475 8.18363 68.1475 10.4918C68.1475 12.8 66.259 14.6886 63.9508 14.6886C61.6426 14.6886 59.7541 12.8 59.7541 10.4918C59.7541 8.18363 61.6426 6.29511 63.9508 6.29511Z" fill="#FFCF10"/>
<path d="M82.8361 35.6721C87.4525 35.6721 91.2295 31.8951 91.2295 27.2787C91.2295 22.6623 87.4525 18.8853 82.8361 18.8853C78.2197 18.8853 74.4426 22.6623 74.4426 27.2787C74.4426 31.8951 78.2197 35.6721 82.8361 35.6721ZM82.8361 23.082C85.1443 23.082 87.0328 24.9705 87.0328 27.2787C87.0328 29.5869 85.1443 31.4754 82.8361 31.4754C80.5279 31.4754 78.6393 29.5869 78.6393 27.2787C78.6393 24.9705 80.5279 23.082 82.8361 23.082Z" fill="#FFCF10"/>
<path d="M97.5246 16.7869C102.141 16.7869 105.918 13.0098 105.918 8.39344C105.918 3.77705 102.141 0 97.5246 0C92.9082 0 89.1311 3.77705 89.1311 8.39344C89.1311 13.0098 92.9082 16.7869 97.5246 16.7869ZM97.5246 4.19672C99.8328 4.19672 101.721 6.08525 101.721 8.39344C101.721 10.7016 99.8328 12.5902 97.5246 12.5902C95.2164 12.5902 93.3279 10.7016 93.3279 8.39344C93.3279 6.08525 95.2164 4.19672 97.5246 4.19672Z" fill="#FFCF10"/>
<path d="M66.6367 96.5898H61.0469V100H55.7734V96.5898H52.2051V92.3184H55.7734V90.9824H52.2051V86.7109H55.7734V74.4062H65.7227C67.6445 74.4062 69.332 74.752 70.7852 75.4434C72.2383 76.1348 73.3633 77.125 74.1602 78.4141C74.9688 79.6914 75.373 81.1504 75.373 82.791C75.373 85.3223 74.5117 87.3203 72.7891 88.7852C71.0781 90.25 68.6934 90.9824 65.6348 90.9824H61.0469V92.3184H66.6367V96.5898ZM61.0469 86.7109H65.5996C68.5527 86.7109 70.0293 85.416 70.0293 82.8262C70.0293 81.5957 69.6543 80.6055 68.9043 79.8555C68.1543 79.0938 67.1172 78.707 65.793 78.6953H61.0469V86.7109Z" fill="#FFCF10"/>
</svg>
