<svg width="100" height="60" viewBox="0 0 100 60" fill="none" xmlns="http://www.w3.org/2000/svg">
<g clip-path="url(#clip0_31_146)">
<path fill-rule="evenodd" clip-rule="evenodd" d="M59.4001 33.7461C59.4298 31.6565 59.4023 29.5459 59.4023 27.4539C59.4023 25.9301 59.0435 23.2822 61.559 23.384C63.935 23.4802 63.612 26.0012 63.612 27.5234C63.612 29.6029 63.591 31.6935 63.6141 33.7721L65.971 33.7684C65.9911 31.6902 65.9727 29.6025 65.9727 27.5234C65.9727 26.0085 65.6417 23.4085 68.112 23.3806C70.5702 23.353 70.1863 25.9894 70.1863 27.5929C70.1863 29.6457 70.1626 31.713 70.1887 33.771L72.6542 33.7649C72.6769 31.8975 72.6566 30.0171 72.6566 28.1482C72.6566 26.3095 72.7995 24.6362 71.9562 23.2355C70.6521 21.0689 66.7096 20.2579 64.819 23.4224C64.545 23.1784 64.362 22.5981 63.6435 22.0954C61.9345 20.8996 59.4137 21.3464 56.9336 21.3464L56.9357 33.7774L59.4001 33.7461Z" fill="white"/>
<path fill-rule="evenodd" clip-rule="evenodd" d="M97.3685 28.5645C97.2625 29.7422 96.8822 30.729 96.2611 31.2968C94.5364 32.8733 90.5116 32.479 91.0775 26.6914C91.2852 24.5697 92.6364 22.6318 95.097 23.3247C97.0242 23.8672 97.5855 26.1509 97.3685 28.5645ZM88.5374 28.4258C88.7732 31.8392 91.1841 34.4119 94.8642 34.055C98.6597 33.687 100.071 30.4034 99.8962 26.9639C99.4966 19.1054 87.8959 19.1467 88.5374 28.4258Z" fill="white"/>
<path fill-rule="evenodd" clip-rule="evenodd" d="M47.1589 23.2624C49.5754 22.8088 50.7564 24.8525 50.8766 27.0344C50.9889 29.0671 50.64 31.6518 48.2597 32.0441C45.8406 32.4426 44.6332 30.5391 44.5345 28.2894C44.426 25.8228 44.9799 23.6716 47.1589 23.2624ZM53.3966 28.2873C53.9226 21.8215 47.5025 19.3684 43.825 22.779C42.8676 23.667 42.1709 25.152 42.0224 26.9915C41.7174 30.7674 43.71 33.7044 47.0167 34.0519C49.1667 34.2776 50.9556 33.417 51.9772 32.173C52.3504 31.7185 52.595 31.314 52.8439 30.7513C53.1717 30.0099 53.323 29.1935 53.3966 28.2873Z" fill="white"/>
<path fill-rule="evenodd" clip-rule="evenodd" d="M31.0373 23.4292C34.2421 23.1957 36.1709 24.1748 36.297 27.3146C36.4284 30.587 34.9275 31.8867 31.7835 31.8867L31.3009 31.8886L31.0376 31.8771L31.0373 23.4292ZM28.6241 33.7607C30.6774 33.8841 34.1809 33.963 35.9409 32.9613C37.6001 32.017 38.8205 30.3398 38.818 27.662C38.814 23.497 36.0389 21.7728 32.6109 21.61C31.6241 21.5631 29.5709 21.4876 28.6224 21.6048L28.6241 33.7607Z" fill="white"/>
<path fill-rule="evenodd" clip-rule="evenodd" d="M79.1074 23.486L85.1556 23.4862C85.1804 23.0638 85.2391 21.8971 85.1166 21.5861L77.487 21.5858C77.1844 21.5845 76.6899 21.4823 76.6899 21.7602L76.6908 33.7492L85.3386 33.766L85.3779 31.8163L79.1265 31.8161L79.123 28.4338L84.8584 28.4266L84.8581 26.5555L79.1134 26.551L79.1074 23.486Z" fill="white"/>
<path d="M1.29742 0.0336914H59.3898V18.6881H56.9474V2.49407H2.51872V57.4706H56.9474V36.6548H59.3898V59.931H0.0761719V0.0336914H1.29742Z" fill="#FFCF10"/>
</g>
<defs>
<clipPath id="clip0_31_146">
<rect width="100" height="60" fill="white"/>
</clipPath>
</defs>
</svg>
